<?xml version="1.0" encoding="UTF-8"?>
<svg version="1.1" xmlns="http://www.w3.org/2000/svg" width="1024" height="1024">
<path d="M0 0 C337.92 0 675.84 0 1024 0 C1024 337.92 1024 675.84 1024 1024 C686.08 1024 348.16 1024 0 1024 C0 686.08 0 348.16 0 0 Z " fill="#F7F6F4" transform="translate(0,0)"/>
<path d="M0 0 C0.66 0 1.32 0 2 0 C8.26102228 18.62415765 9.2883146 37.30456319 9.375 56.8125 C9.38285522 57.68282867 9.39071045 58.55315735 9.39880371 59.44985962 C9.50339213 74.3566923 8.30623389 88.89147055 3.3125 103.0625 C3.05758789 103.80016602 2.80267578 104.53783203 2.54003906 105.29785156 C-8.82219323 137.04965722 -32.11022608 162.18382353 -62.48022461 176.70825195 C-67.13634791 178.87904148 -71.84000095 180.93409461 -76.55859375 182.96484375 C-97.96164064 192.21527539 -115.53223604 204.32140649 -126.375 225.5 C-127.39875407 227.47129816 -128.4271546 229.44019259 -129.4609375 231.40625 C-130.12295166 232.69499023 -130.12295166 232.69499023 -130.79833984 234.00976562 C-132 236 -132 236 -134 237 C-136.43633163 203.81174911 -115.76813719 171.22816379 -95.33984375 146.70703125 C-91.4588758 142.21702993 -87.44450353 137.8563411 -83.40283203 133.51171875 C-81.10968869 131.04058343 -78.83719734 128.55060353 -76.5625 126.0625 C-73.70872165 122.94175529 -70.84609255 119.83033623 -67.95703125 116.7421875 C-57.10550201 105.12573975 -47.46233721 92.76054611 -38 80 C-41.50887177 82.7176136 -44.68605055 85.57853185 -47.80078125 88.73828125 C-48.69603516 89.64126953 -49.59128906 90.54425781 -50.51367188 91.47460938 C-52.36792031 93.35473707 -54.22208802 95.23494438 -56.07617188 97.11523438 C-61.21825784 102.30155333 -66.4501279 107.25569203 -72 112 C-73.83869148 113.6607536 -75.6726557 115.32676908 -77.5 117 C-80.54373528 119.78177446 -83.60175045 122.52517592 -86.75 125.1875 C-109.68736195 145.35169729 -124.17038651 168.20650195 -134 197 C-135.77105205 194.34342193 -136.46523902 192.81814771 -137.25390625 189.83203125 C-137.46853516 189.02056641 -137.68316406 188.20910156 -137.90429688 187.37304688 C-138.12150391 186.52806641 -138.33871094 185.68308594 -138.5625 184.8125 C-138.78357422 183.98685547 -139.00464844 183.16121094 -139.23242188 182.31054688 C-145.8847813 156.80648611 -142.6840978 129.08521503 -129.89794922 106.01123047 C-109.48440689 71.40599275 -71.90475804 53.13016498 -37.76464844 34.79980469 C-22.98989414 26.82717943 -8.59303407 17.40570136 -1 2 C-0.67 1.34 -0.34 0.68 0 0 Z " fill="#14341F" transform="translate(649,252)"/>
<path d="M0 0 C1.72447904 0.00031742 3.44897767 0.01165954 5.17333984 0.03173828 C6.53415176 0.03598312 6.53415176 0.03598312 7.92245483 0.04031372 C10.82652857 0.05152926 13.73029646 0.07663615 16.63427734 0.10205078 C18.60041873 0.11207881 20.56656494 0.12120497 22.53271484 0.12939453 C27.35835393 0.15147306 32.18376374 0.18601213 37.00927734 0.22705078 C49.07280356 26.66841174 60.6925551 53.27563216 71.96658325 80.06332397 C73.99767815 84.88003302 76.09015831 89.65875917 78.27957153 94.40589905 C79.00927734 96.22705078 79.00927734 96.22705078 79.00927734 98.22705078 C76.82528086 99.61881325 74.64114712 100.90092376 72.38427734 102.16455078 C55.95130462 111.70955647 42.26039379 124.72272828 29.00927734 138.22705078 C28.00995738 139.22773036 27.01007089 140.22784496 26.00927734 141.22705078 C24.89187421 138.38275188 23.7744967 135.53844294 22.65722656 132.6940918 C21.6709941 130.18399664 20.6844019 127.67404616 19.69726562 125.16430664 C17.16999931 118.73731627 14.64918908 112.30799189 12.14599609 105.87158203 C7.86013327 94.86896738 3.52882651 83.89658419 -1.11572266 73.03955078 C-1.49422363 72.15404541 -1.87272461 71.26854004 -2.26269531 70.35620117 C-3.70346529 66.52264479 -3.70346529 66.52264479 -5.99072266 63.22705078 C-21.21857337 96.59173419 -35.51792565 130.37769049 -49.63916016 164.22314453 C-52.20475742 170.37095044 -54.80117639 176.50541241 -57.40478516 182.63720703 C-65.59039421 201.92532039 -73.69243547 221.24141147 -81.55322266 240.66455078 C-81.91879272 241.56654205 -82.28436279 242.46853333 -82.66101074 243.39785767 C-83.69141673 245.94277321 -84.7187677 248.48889402 -85.74462891 251.03564453 C-86.04581131 251.78045074 -86.34699371 252.52525696 -86.65730286 253.29263306 C-90.22067242 262.17400972 -91.91257531 269.53607474 -90.99072266 279.22705078 C-87.82782669 286.16109194 -81.71457348 290.40486093 -74.84619141 293.31298828 C-68.72110762 295.27368542 -62.32763873 296.20070364 -55.99072266 297.22705078 C-55.99072266 301.18705078 -55.99072266 305.14705078 -55.99072266 309.22705078 C-90.31072266 309.22705078 -124.63072266 309.22705078 -159.99072266 309.22705078 C-159.99072266 305.59705078 -159.99072266 301.96705078 -159.99072266 298.22705078 C-158.38197266 298.00017578 -156.77322266 297.77330078 -155.11572266 297.53955078 C-143.33429303 295.33713244 -134.13375112 289.07138524 -126.93603516 279.49267578 C-116.11877392 262.72374873 -108.82578031 243.48750429 -101.11572266 225.16455078 C-100.22952186 223.06862858 -99.34279648 220.97292811 -98.45556641 218.87744141 C-96.72634081 214.79270246 -94.99891365 210.70721164 -93.27294922 206.62109375 C-90.53594277 200.14615138 -87.76850842 193.68460592 -84.99072266 187.22705078 C-74.15250231 161.98867107 -63.43838877 136.69690666 -52.69750977 111.41699219 C-49.53808485 103.98099553 -46.37763843 96.5454333 -43.2164917 89.11016846 C-42.35890779 87.09305491 -41.50136744 85.07592285 -40.64385986 83.05877686 C-33.85752599 67.09569112 -27.06361482 51.13586263 -20.25274658 35.18322754 C-19.44368596 33.2880763 -18.63486684 31.39282194 -17.82635498 29.49743652 C-15.89042485 24.95934757 -13.95055912 20.42301491 -12.00061035 15.89093018 C-11.20356217 14.03602147 -10.4110322 12.17917334 -9.61865234 10.32226562 C-9.15749023 9.25443848 -8.69632813 8.18661133 -8.22119141 7.08642578 C-7.83342529 6.18375977 -7.44565918 5.28109375 -7.04614258 4.35107422 C-5.13677799 0.50849454 -4.4217689 0.25157501 0 0 Z " fill="#14341E" transform="translate(493.99072265625,202.77294921875)"/>
<path d="M0 0 C2.82703488 3.39031226 4.52679127 7.10546529 6.2578125 11.125 C6.5623082 11.82036362 6.86680389 12.51572723 7.18052673 13.23216248 C7.83039041 14.71774071 8.47792392 16.20434009 9.12332153 17.69186401 C10.13120823 20.01430543 11.14554164 22.3338273 12.16186523 24.65258789 C13.50186811 27.71045048 14.84005221 30.7690946 16.17626953 33.82861328 C26.38673149 61.60200449 26.38673149 61.60200449 47 81 C51.62557242 82.52524263 56.27526994 83.81218163 61 85 C61 88.63 61 92.26 61 96 C14.8 96 -31.4 96 -79 96 C-79 92.37 -79 88.74 -79 85 C-77.94941406 84.82984375 -76.89882813 84.6596875 -75.81640625 84.484375 C-62.78511691 82.65548453 -62.78511691 82.65548453 -51.9375 75.875 C-48.93952968 66.68122434 -52.18622024 58.36580213 -55.4375 49.6875 C-56.27219719 47.40071091 -57.10433094 45.11298412 -57.93359375 42.82421875 C-58.30540771 41.82479248 -58.67722168 40.82536621 -59.06030273 39.7956543 C-59.93250737 37.20079451 -60.53229897 34.69382247 -61 32 C-60.26587891 31.67837891 -59.53175781 31.35675781 -58.77539062 31.02539062 C-28.21750985 17.6724618 -28.21750985 17.6724618 0 0 Z " fill="#14331E" transform="translate(621,416)"/>
<path d="M0 0 C6.36778167 -0.127601 12.7352293 -0.21468406 19.10400391 -0.2746582 C21.26688965 -0.29968039 23.42969189 -0.33370909 25.59228516 -0.37719727 C28.71537981 -0.43839207 31.83734913 -0.46633343 34.9609375 -0.48828125 C35.91551849 -0.51408768 36.87009949 -0.5398941 37.85360718 -0.56648254 C45.57348349 -0.56965083 52.18909574 1.46687647 57.94662476 6.80473328 C61.71391126 10.91613873 63.71793118 14.60241506 64.375 20.1875 C63.76212285 26.41841766 61.99180038 32.69826072 57.125 36.9375 C54.16198225 38.89309171 51.23308045 40.53741599 48 42 C53.07614062 52.99830469 60.87025333 67.9372661 71.5 74.375 C72.325 74.91125 73.15 75.4475 74 76 C74 77.32 74 78.64 74 80 C71.29057607 80.10861833 68.585561 80.18758577 65.875 80.25 C65.11445313 80.28351563 64.35390625 80.31703125 63.5703125 80.3515625 C58.19448019 80.44424926 55.25727789 79.56741242 51 76 C45.31623986 70.32763016 41.18234239 63.29975744 37 56.5 C36.26003784 55.29706299 36.26003784 55.29706299 35.50512695 54.06982422 C32 48.25750155 32 48.25750155 32 46 C29.03 46 26.06 46 23 46 C23.02274013 50.2720236 23.09996726 54.54135129 23.1875 58.8125 C23.19330078 60.02744141 23.19910156 61.24238281 23.20507812 62.49414062 C23.23408203 63.65751953 23.26308594 64.82089844 23.29296875 66.01953125 C23.3086792 67.09307861 23.32438965 68.16662598 23.34057617 69.27270508 C23.74402504 72.20929944 23.74402504 72.20929944 26.41918945 73.8112793 C27.27085693 74.20355713 28.12252441 74.59583496 29 75 C29.66 75.33 30.32 75.66 31 76 C31 77.32 31 78.64 31 80 C20.77 80 10.54 80 0 80 C-0.33 78.68 -0.66 77.36 -1 76 C1.31 75.01 3.62 74.02 6 73 C6 50.56 6 28.12 6 5 C4.02 4.34 2.04 3.68 0 3 C0 2.01 0 1.02 0 0 Z " fill="#132F1C" transform="translate(228,611)"/>
<path d="M0 0 C6.20722892 -0.09959145 12.41398288 -0.17180805 18.62182617 -0.21972656 C20.72933057 -0.23972278 22.83678034 -0.26692893 24.9440918 -0.30175781 C50.85212042 -0.71893658 50.85212042 -0.71893658 58.22973633 6.04394531 C63.58897979 11.7518192 64.36641152 16.27534355 64.2734375 23.9921875 C63.73137857 29.95483573 60.8934831 33.37253773 56.5 37.3125 C54.13183489 39.2770006 51.78771972 40.69784145 49 42 C50.69874922 47.13742945 53.69708237 51.35813868 56.6875 55.8125 C57.19216797 56.58142578 57.69683594 57.35035156 58.21679688 58.14257812 C64.41723631 67.59173029 64.41723631 67.59173029 72.9375 74.75 C73.618125 75.1625 74.29875 75.575 75 76 C75 77.32 75 78.64 75 80 C57.11203771 81.20399746 57.11203771 81.20399746 52.5 77.4375 C50.7890625 75.515625 50.7890625 75.515625 49 73 C48.6090918 72.45794922 48.21818359 71.91589844 47.81542969 71.35742188 C44.71077395 67.00667982 41.82601255 62.53521602 39 58 C38.02546875 56.453125 38.02546875 56.453125 37.03125 54.875 C33 48.33372642 33 48.33372642 33 46 C30.03 46 27.06 46 24 46 C24.33 55.24 24.66 64.48 25 74 C27.64 74.66 30.28 75.32 33 76 C32.505 77.98 32.505 77.98 32 80 C21.44 80 10.88 80 0 80 C0 78.35 0 76.7 0 75 C0.969375 74.690625 1.93875 74.38125 2.9375 74.0625 C5.84065792 73.30476658 5.84065792 73.30476658 7 72 C7.10981004 70.02201152 7.14911678 68.04007983 7.16113281 66.05908203 C7.17074036 64.78751251 7.1803479 63.51594299 7.19024658 62.20584106 C7.19509418 60.80650002 7.1993731 59.40715691 7.203125 58.0078125 C7.20887422 56.58153276 7.21463198 55.15525306 7.22039795 53.72897339 C7.2309173 50.73451374 7.2367537 47.74008101 7.24023438 44.74560547 C7.24571846 40.90633942 7.26974028 37.06742816 7.29820633 33.22827339 C7.31682091 30.28061888 7.32203768 27.33304997 7.32357025 24.38534164 C7.32660046 22.96992937 7.3346414 21.55451873 7.34775543 20.13916397 C7.36478793 18.15941614 7.36109493 16.17952267 7.35644531 14.19970703 C7.36009094 13.07243195 7.36373657 11.94515686 7.36749268 10.78372192 C7.23435897 7.99477902 7.23435897 7.99477902 5.61444092 6.18673706 C3.826837 4.872712 2.02250512 3.90664023 0 3 C0 2.01 0 1.02 0 0 Z " fill="#14311C" transform="translate(615,611)"/>
<path d="M0 0 C7.30394429 5.27908845 11.85806078 11.57758755 13.5546875 20.5234375 C14.50133799 28.99960031 12.79886285 36.69413343 8.01171875 43.8203125 C1.60891616 51.61502869 -5.82818995 55.69687161 -15.78515625 56.77734375 C-24.79802506 57.21873227 -32.45649527 54.54158365 -39.3828125 48.7734375 C-45.35555784 43.05712487 -48.49650556 36.39408103 -48.78930664 28.078125 C-48.9245142 18.84568408 -47.77662086 12.4174749 -41.4609375 5.28125 C-30.09628145 -5.72070426 -13.84354199 -8.35919948 0 0 Z " fill="#14311D" transform="translate(291.4453125,743.4765625)"/>
<path d="M0 0 C18.41731201 -1.46070059 18.41731201 -1.46070059 23.859375 1.6171875 C25.87636936 3.95923467 27.42031773 6.34520228 29 9 C30.37166671 10.70720162 31.76916372 12.39386908 33.1875 14.0625 C34.34907249 15.49289928 35.51050644 16.92341362 36.66943359 18.35595703 C38.71251275 20.88037814 40.76160034 23.39991077 42.80981445 25.92016602 C43.93487208 27.30458981 45.05971003 28.68919216 46.18432617 30.07397461 C54.36139563 40.14844365 54.36139563 40.14844365 62.625 50.15185547 C63.800625 51.56168701 63.800625 51.56168701 65 53 C65.07416092 46.80699281 65.12860756 40.61424416 65.16479492 34.42089844 C65.17988069 32.3140818 65.20035193 30.20729656 65.22631836 28.10058594 C65.26271053 25.0721868 65.2797285 22.04420291 65.29296875 19.015625 C65.30845261 18.07382385 65.32393646 17.13202271 65.33988953 16.16168213 C65.34011612 15.28107117 65.34034271 14.40046021 65.34057617 13.49316406 C65.34723801 12.72039124 65.35389984 11.94761841 65.36076355 11.15142822 C64.89887257 8.39692243 63.89131017 7.02841294 62 5 C59.40144267 4.1957792 59.40144267 4.1957792 57 4 C57 2.68 57 1.36 57 0 C65.25 0 73.5 0 82 0 C81.67 1.32 81.34 2.64 81 4 C79.01276732 4.70381157 77.01222047 5.3711811 75 6 C73.83808371 9.48574888 73.83961986 12.27111727 73.79467773 15.94995117 C73.78477814 16.65264633 73.77487854 17.35534149 73.76467896 18.07933044 C73.73310766 20.40050901 73.70832387 22.72170805 73.68359375 25.04296875 C73.66302044 26.65294423 73.64202387 28.26291436 73.62062073 29.87287903 C73.56543894 34.10936138 73.51601251 38.34589216 73.46777344 42.5824585 C73.41752999 46.90592761 73.36185877 51.22932644 73.30664062 55.55273438 C73.19910666 64.03509681 73.09765113 72.51751807 73 81 C70.1628418 81.14697266 70.1628418 81.14697266 67 81 C64.94613322 79.14628516 63.46510058 77.54064673 61.8125 75.375 C61.34328125 74.79105469 60.8740625 74.20710937 60.390625 73.60546875 C58.90799611 71.75119422 57.45253067 69.87791117 56 68 C55.07779336 66.82475868 54.15463499 65.65026349 53.23046875 64.4765625 C51.85860133 62.73188637 50.48891051 60.9857435 49.1262207 59.23388672 C46.01103788 55.23836219 42.79522128 51.34793786 39.5 47.5 C34.32207803 41.44860441 29.38249578 35.22824134 24.50189209 28.93560791 C22.78000245 26.71647164 21.05564333 24.4992659 19.33105469 22.28222656 C18.70575867 21.4783551 18.08046265 20.67448364 17.43621826 19.84625244 C16.96226624 19.23698914 16.48831421 18.62772583 16 18 C15.94926355 25.02918412 15.91425104 32.05832095 15.89013672 39.08764648 C15.88008314 41.47861496 15.86643836 43.86957115 15.84912109 46.26049805 C15.8248449 49.6984358 15.81351035 53.13621088 15.8046875 56.57421875 C15.79436493 57.64210129 15.78404236 58.70998383 15.77340698 59.81022644 C15.77325592 60.81088638 15.77310486 61.81154633 15.77294922 62.8425293 C15.76628738 64.15824165 15.76628738 64.15824165 15.75949097 65.50053406 C16.03384602 68.35174132 16.70209154 70.44939407 18 73 C20.52372901 74.36078035 20.52372901 74.36078035 23 75 C23 76.65 23 78.3 23 80 C15.41 80 7.82 80 0 80 C-0.33 78.68 -0.66 77.36 -1 76 C0.423125 75.4121875 0.423125 75.4121875 1.875 74.8125 C5.50748695 72.70565757 5.83562821 71.90563172 7 68 C7.30632833 65.14136127 7.30632833 65.14136127 7.2746582 62.07983398 C7.28419022 60.91189804 7.29372223 59.7439621 7.30354309 58.54063416 C7.30217598 56.66233665 7.30217598 56.66233665 7.30078125 54.74609375 C7.30506638 53.45308853 7.3093515 52.16008331 7.31376648 50.82789612 C7.32121039 48.09689217 7.32094994 45.36601756 7.31567383 42.63500977 C7.3098691 39.13893436 7.32684246 35.64338702 7.3500185 32.14739895 C7.36830215 28.80527494 7.36457074 25.46326752 7.36328125 22.12109375 C7.372491 20.86687119 7.38170074 19.61264862 7.39118958 18.32041931 C7.38496078 17.15563553 7.37873199 15.99085175 7.37231445 14.79077148 C7.37294388 13.76660629 7.3735733 12.7424411 7.3742218 11.6872406 C6.94403417 8.59811625 6.14047821 7.23533707 4 5 C1.90584196 4.20376178 1.90584196 4.20376178 0 4 C0 2.68 0 1.36 0 0 Z " fill="#13311D" transform="translate(845,611)"/>
<path d="M0 0 C1.48275839 2.80705256 2.55955739 5.33002108 3.6015625 8.30078125 C3.92013718 9.15676407 4.23871185 10.01274689 4.56694031 10.89466858 C5.60461622 13.69423583 6.61435766 16.50307435 7.625 19.3125 C8.33259494 21.23147547 9.04248399 23.14960655 9.75463867 25.06689453 C11.17834821 28.90360407 12.59373808 32.7432057 14.00244141 36.58544922 C16.68537946 43.88298294 19.47917589 51.13477319 22.3125 58.375 C22.74965332 59.51235596 23.18680664 60.64971191 23.63720703 61.8215332 C24.04181152 62.85753662 24.44641602 63.89354004 24.86328125 64.9609375 C25.20657471 65.84571777 25.54986816 66.73049805 25.90356445 67.64208984 C27.03210201 70.06903612 28.24689464 71.98009916 30 74 C32.09415804 74.79623822 32.09415804 74.79623822 34 75 C34 76.65 34 78.3 34 80 C23.11 80 12.22 80 1 80 C1 78.35 1 76.7 1 75 C4.465 74.01 4.465 74.01 8 73 C7.52842228 67.57685619 6.01531204 63.22014574 3.83984375 58.234375 C3 56 3 56 3 53 C-6.24 53 -15.48 53 -25 53 C-25.66 55.97 -26.32 58.94 -27 62 C-27.37125 63.0725 -27.7425 64.145 -28.125 65.25 C-29.00221477 68.00696072 -29.16887928 70.12905232 -29 73 C-26.69 73.66 -24.38 74.32 -22 75 C-22 76.65 -22 78.3 -22 80 C-29.92 80 -37.84 80 -46 80 C-46.33 78.68 -46.66 77.36 -47 76 C-46.05125 75.773125 -45.1025 75.54625 -44.125 75.3125 C-40.86411825 74.35302071 -40.86411825 74.35302071 -39.95678711 71.78344727 C-39.64104736 70.86490967 -39.32530762 69.94637207 -39 69 C-38.19186822 67.04950805 -37.38038788 65.10040168 -36.56640625 63.15234375 C-30.80047672 49.3113963 -25.13896674 35.44275186 -19.74243164 21.45288086 C-17.70445439 16.19943709 -15.61610604 10.9734952 -13.37109375 5.8046875 C-12.79572876 4.47800049 -12.79572876 4.47800049 -12.20874023 3.12451172 C-11 1 -11 1 -8 -0.75 C-2.88543061 -1.17621412 -2.88543061 -1.17621412 0 0 Z " fill="#163420" transform="translate(143,611)"/>
<path d="M0 0 C1.30671692 1.95979309 1.30671692 1.95979309 2.27661133 4.56958008 C2.65082718 5.54602982 3.02504303 6.52247955 3.41059875 7.52851868 C3.79717148 8.59805283 4.1837442 9.66758698 4.58203125 10.76953125 C5.20884041 12.42755013 5.20884041 12.42755013 5.84831238 14.11906433 C7.18873681 17.67674391 8.5011855 21.24400085 9.8125 24.8125 C10.68365358 27.14458833 11.55668067 29.47597771 12.43164062 31.80664062 C12.86000214 32.94922333 13.28836365 34.09180603 13.72970581 35.26901245 C14.58804043 37.55689612 15.44686438 39.84459628 16.30618286 42.1321106 C16.72415131 43.24560883 17.14211975 44.35910706 17.57275391 45.50634766 C18.18524994 47.1376059 18.18524994 47.1376059 18.81011963 48.80181885 C19.9509185 51.86807788 21.06355003 54.94340786 22.17333984 58.02099609 C22.84757649 59.83079753 23.52280605 61.64022949 24.19921875 63.44921875 C24.48287796 64.26485794 24.76653717 65.08049713 25.05879211 65.92085266 C27.21557829 71.57417242 29.4750152 73.51803609 35 76 C35 77.32 35 78.64 35 80 C24.11 80 13.22 80 2 80 C1.67 78.68 1.34 77.36 1 76 C6.75 74 6.75 74 9 74 C7.84029131 68.00817175 6.21028382 62.67653781 3.8046875 57.06640625 C3 55 3 55 3 53 C-5.91 53 -14.82 53 -24 53 C-25.95852527 60.18125933 -27.41065754 65.81002196 -28 73 C-25.69 73.66 -23.38 74.32 -21 75 C-21 76.65 -21 78.3 -21 80 C-29.25 80 -37.5 80 -46 80 C-46 78.35 -46 76.7 -46 75 C-44.63875 74.505 -44.63875 74.505 -43.25 74 C-36.36206208 69.76126897 -34.012968 59.26086936 -31.15625 51.9765625 C-30.70527954 50.83520844 -30.25430908 49.69385437 -29.78967285 48.51791382 C-28.35638219 44.88827296 -26.92808031 41.2566936 -25.5 37.625 C-24.54070196 35.19257525 -23.58106975 32.76028226 -22.62109375 30.328125 C-20.85141206 25.84408664 -19.08404666 21.35914764 -17.31835938 16.87353516 C-16.92745117 15.88887268 -16.53654297 14.90421021 -16.13378906 13.88970947 C-15.37572075 11.95760652 -14.63552921 10.01839714 -13.91308594 8.07269287 C-13.57245117 7.170047 -13.23181641 6.26740112 -12.88085938 5.33740234 C-12.58739624 4.53974457 -12.29393311 3.74208679 -11.99157715 2.92025757 C-11 1 -11 1 -8.0625 -0.6875 C-4.93943767 -1.00617983 -2.97214967 -0.9763697 0 0 Z " fill="#173621" transform="translate(457,611)"/>
<path d="M0 0 C4.02323652 4.02323652 3.05665178 10.56883247 3.0625 15.9375 C3.0465517 17.95837779 3.02734857 19.97924434 3 22 C1.68 22 0.36 22 -1 22 C-1.36351562 21.26394531 -1.72703125 20.52789063 -2.1015625 19.76953125 C-6.07695235 12.05319762 -9.43237486 6.78749494 -18 4 C-26.02406276 3.22724592 -34.40430213 2.71687882 -41 8 C-49.03486448 16.03486448 -52.02176986 25.79701649 -52.25 36.9375 C-52.01888536 48.3198961 -49.15872136 58.94632298 -42 68 C-35.52728693 73.06560153 -29.12071861 74.95703443 -21 74 C-18.13818822 73.12600162 -15.15666187 72.15666187 -13 70 C-12.91314397 68.43827255 -12.89297781 66.87270656 -12.90234375 65.30859375 C-12.90556641 64.36435547 -12.90878906 63.42011719 -12.91210938 62.44726562 C-12.92048828 61.45404297 -12.92886719 60.46082031 -12.9375 59.4375 C-12.94201172 58.44041016 -12.94652344 57.44332031 -12.95117188 56.41601562 C-12.96299993 53.94395151 -12.97948151 51.47200482 -13 49 C-16.33311475 47.2175082 -19.24480943 46.51207144 -23 46 C-23 44.68 -23 43.36 -23 42 C-11.78 42 -0.56 42 11 42 C11 43.32 11 44.64 11 46 C9.02 46.66 7.04 47.32 5 48 C4.99589111 48.74161377 4.99178223 49.48322754 4.98754883 50.24731445 C4.95468159 53.6031908 4.88404475 56.95723488 4.8125 60.3125 C4.80379883 62.06336914 4.80379883 62.06336914 4.79492188 63.84960938 C4.76591797 64.96787109 4.73691406 66.08613281 4.70703125 67.23828125 C4.6913208 68.26993408 4.67561035 69.30158691 4.65942383 70.36450195 C4 73 4 73 1.62133789 74.80297852 C-1.03084898 76.01408704 -3.55460679 76.88959661 -6.375 77.625 C-7.26960937 77.86476563 -8.16421875 78.10453125 -9.0859375 78.3515625 C-23.20773596 81.49394661 -39.51155899 82.20015167 -52.29296875 74.64453125 C-61.43909713 68.24395736 -66.74882508 60.02592466 -69.25 49.1875 C-71.47644313 36.25006019 -69.75190674 25.38742295 -62.6484375 14.31640625 C-56.40217413 5.53907407 -47.83067683 0.19172233 -37.3125 -2.375 C-24.95178053 -4.29645799 -11.99498482 -3.54804164 0 0 Z " fill="#14321D" transform="translate(595,612)"/>
<path d="M0 0 C19.14 0 38.28 0 58 0 C58.6376085 5.10086797 59.11969716 9.46665034 59.0625 14.5 C59.05347656 15.5415625 59.04445313 16.583125 59.03515625 17.65625 C59.02355469 18.4296875 59.01195312 19.203125 59 20 C57.68 20 56.36 20 55 20 C54.74605469 19.38511719 54.49210938 18.77023437 54.23046875 18.13671875 C53.88628906 17.32847656 53.54210937 16.52023437 53.1875 15.6875 C52.85105469 14.88699219 52.51460937 14.08648438 52.16796875 13.26171875 C50.39359543 9.82572492 48.95848439 8.42311473 45.3984375 6.8515625 C41.1193392 5.77932867 37.01871221 5.54377358 32.625 5.375 C29.77875 5.25125 26.9325 5.1275 24 5 C24 14.9 24 24.8 24 35 C26.8875 34.9175 29.775 34.835 32.75 34.75 C33.65331055 34.73420898 34.55662109 34.71841797 35.48730469 34.70214844 C39.31622671 34.53954334 41.4023058 34.45011539 44.53125 32.09375 C45.99653882 30.00493402 46.64123967 28.51132228 47 26 C48.32 26 49.64 26 51 26 C51 34.25 51 42.5 51 51 C49.68 50.67 48.36 50.34 47 50 C45.98308736 48.00854609 44.98357352 46.00812926 44 44 C38.35411136 40.85159747 38.35411136 40.85159747 24 41 C24 51.89 24 62.78 24 74 C27.50625 73.896875 31.0125 73.79375 34.625 73.6875 C36.265896 73.65015747 36.265896 73.65015747 37.93994141 73.61206055 C44.99682956 73.34601936 49.63610048 72.47384834 54.6875 67.1875 C56.84430187 64.21461094 58.48900615 61.34009168 60 58 C61.32 58.33 62.64 58.66 64 59 C62.515 69.395 62.515 69.395 61 80 C40.87 80 20.74 80 0 80 C0 78.68 0 77.36 0 76 C0.969375 75.525625 1.93875 75.05125 2.9375 74.5625 C5.80477437 73.29806053 5.80477437 73.29806053 7 72 C7.10455643 70.02186341 7.13855598 68.03996856 7.14526367 66.05908203 C7.15164352 64.78751251 7.15802338 63.51594299 7.16459656 62.20584106 C7.16612528 60.80649859 7.16723922 59.40715562 7.16796875 58.0078125 C7.17117997 56.58153245 7.17454393 55.15525273 7.17805481 53.72897339 C7.18405304 50.73450965 7.18589405 47.7400748 7.18530273 44.74560547 C7.18520118 40.9064184 7.19884327 37.06741657 7.21607494 33.22827339 C7.22718929 30.28062081 7.2292221 27.33301304 7.22869301 24.38534164 C7.22987437 22.9699426 7.23430489 21.55454245 7.24202538 20.13916397 C7.25181144 18.15936915 7.24768655 16.1795203 7.24291992 14.19970703 C7.24434494 13.07243195 7.24576996 11.94515686 7.24723816 10.78372192 C7.20520591 7.78898331 7.20520591 7.78898331 5 5 C2.44816596 3.79549696 2.44816596 3.79549696 0 3 C0 2.01 0 1.02 0 0 Z " fill="#14331D" transform="translate(697,611)"/>
<path d="M0 0 C19.14 0 38.28 0 58 0 C59.125 10.125 59.125 10.125 59.0625 15.0625 C59.05347656 16.00222656 59.04445313 16.94195313 59.03515625 17.91015625 C59.02355469 18.59980469 59.01195312 19.28945313 59 20 C57.68 20 56.36 20 55 20 C54.75765625 19.39671875 54.5153125 18.7934375 54.265625 18.171875 C51.65285274 11.88044829 51.65285274 11.88044829 47 7 C44.2097333 6.0699111 42.23470458 5.81301231 39.33203125 5.68359375 C38.52741455 5.64548584 37.72279785 5.60737793 36.89379883 5.56811523 C35.87697021 5.52501221 34.8601416 5.48190918 33.8125 5.4375 C30.574375 5.293125 27.33625 5.14875 24 5 C24 14.9 24 24.8 24 35 C28.3621875 34.814375 28.3621875 34.814375 32.8125 34.625 C33.72491455 34.59100098 34.6373291 34.55700195 35.57739258 34.52197266 C36.30079834 34.4863623 37.0242041 34.45075195 37.76953125 34.4140625 C38.50792236 34.3826416 39.24631348 34.3512207 40.00708008 34.31884766 C42.31349588 34.09165386 42.31349588 34.09165386 45 32 C46.20450304 29.44816596 46.20450304 29.44816596 47 27 C48.32 27 49.64 27 51 27 C51 34.92 51 42.84 51 51 C49.68 51 48.36 51 47 51 C46.566875 49.88625 46.13375 48.7725 45.6875 47.625 C44.30088881 43.82487666 44.30088881 43.82487666 41 42 C39.07255631 41.6373883 39.07255631 41.6373883 36.98828125 41.5859375 C36.30548096 41.55032715 35.62268066 41.5147168 34.91918945 41.47802734 C34.05898193 41.44402832 33.19877441 41.4100293 32.3125 41.375 C29.569375 41.25125 26.82625 41.1275 24 41 C24 51.89 24 62.78 24 74 C27.50625 73.896875 31.0125 73.79375 34.625 73.6875 C36.265896 73.65015747 36.265896 73.65015747 37.93994141 73.61206055 C43.2775465 73.41083548 47.48276086 73.14580816 52 70 C53.91377647 67.9002233 53.91377647 67.9002233 55.3125 65.5 C55.80363281 64.7265625 56.29476562 63.953125 56.80078125 63.15625 C58.126131 60.92951023 58.126131 60.92951023 59 58 C60.32 58 61.64 58 63 58 C62.85621657 59.97931664 62.70985226 61.95844584 62.5625 63.9375 C62.48128906 65.03964844 62.40007813 66.14179687 62.31640625 67.27734375 C61.95533076 71.52555289 61.47082771 75.76255057 61 80 C41.2 80 21.4 80 1 80 C0.67 78.68 0.34 77.36 0 76 C3.465 75.01 3.465 75.01 7 74 C7.04631606 65.44649477 7.08186543 56.89304184 7.10362434 48.33944225 C7.11406689 44.36777 7.12823463 40.39618346 7.15087891 36.42456055 C7.17259058 32.59257984 7.18456508 28.76068165 7.18975449 24.92864418 C7.19345326 23.46578993 7.20067596 22.00294025 7.21146011 20.54012108 C7.22595298 18.49303764 7.2279789 16.44629631 7.22705078 14.39916992 C7.231492 13.23334885 7.23593323 12.06752777 7.24050903 10.86637878 C7.21568279 7.80007107 7.21568279 7.80007107 5 5 C2.44816596 3.79549696 2.44816596 3.79549696 0 3 C0 2.01 0 1.02 0 0 Z " fill="#14331E" transform="translate(771,611)"/>
<path d="M0 0 C2.35358251 2.35358251 2.27871904 2.92968394 2.4140625 6.1328125 C2.47207031 7.34130859 2.47207031 7.34130859 2.53125 8.57421875 C2.5621875 9.41597656 2.593125 10.25773438 2.625 11.125 C2.68300781 12.39923828 2.68300781 12.39923828 2.7421875 13.69921875 C2.83656494 15.79911684 2.91937586 17.89952891 3 20 C1.68 20 0.36 20 -1 20 C-1.37511719 19.25234375 -1.75023437 18.5046875 -2.13671875 17.734375 C-5.27575992 11.69349981 -7.72978471 7.13510765 -14 4 C-18.91996928 3.46881748 -22.77327597 3.24894447 -27.0625 5.875 C-29.01683699 8.01846637 -29.94034803 9.06793798 -30.125 11.953125 C-30.063125 13.09007812 -30.063125 13.09007812 -30 14.25 C-29.979375 14.99765625 -29.95875 15.7453125 -29.9375 16.515625 C-26.91714155 24.51957489 -16.27106849 28.28722883 -9.20703125 31.94335938 C-1.32147439 36.12401282 5.06845725 41.20537176 8 50 C8.86415677 56.92742063 7.58459466 63.00640355 4 69 C-2.11152993 76.21160532 -8.35550627 79.52511714 -17.66796875 80.30859375 C-26.60760304 80.70147315 -34.68930137 79.59168994 -43 76 C-45 74 -45 74 -45.22705078 71.93701172 C-45.21134033 70.69588623 -45.21134033 70.69588623 -45.1953125 69.4296875 C-45.18886719 68.53378906 -45.18242187 67.63789062 -45.17578125 66.71484375 C-45.15902344 65.77769531 -45.14226562 64.84054687 -45.125 63.875 C-45.11597656 62.93011719 -45.10695313 61.98523438 -45.09765625 61.01171875 C-45.07404522 58.67422708 -45.04111516 56.33723877 -45 54 C-43.68 54 -42.36 54 -41 54 C-40.32904297 55.44632813 -40.32904297 55.44632813 -39.64453125 56.921875 C-39.03450877 58.19822973 -38.42379487 59.47425417 -37.8125 60.75 C-37.52052734 61.38421875 -37.22855469 62.0184375 -36.92773438 62.671875 C-34.58556377 67.50732399 -31.91540844 70.54229578 -27 73 C-24.90051399 73.17471848 -22.79375592 73.26717852 -20.6875 73.3125 C-18.99173828 73.36857422 -18.99173828 73.36857422 -17.26171875 73.42578125 C-13.35695943 72.91605818 -11.77851871 71.72790817 -9 69 C-7.13783238 65.27566476 -7.57973806 61.06462296 -8 57 C-11.03891096 49.81711955 -18.22270918 46.96461034 -24.81640625 43.53515625 C-31.981112 39.77841902 -38.04960339 35.87239555 -43 29.375 C-44.80450825 23.28478466 -45.2351894 16.68169981 -43.19140625 10.58984375 C-39.55361175 4.05691868 -33.39072873 0.381408 -26.625 -2.375 C-17.43664413 -3.95919929 -8.81652092 -3.08507474 0 0 Z " fill="#132F1C" transform="translate(397,612)"/>
<path d="M0 0 C11 0 11 0 13.52709961 1.67382812 C14.06343018 2.45177734 14.59976074 3.22972656 15.15234375 4.03125 C15.77810303 4.89782227 16.4038623 5.76439453 17.04858398 6.65722656 C17.67192627 7.5953418 18.29526855 8.53345703 18.9375 9.5 C19.60918213 10.44584961 20.28086426 11.39169922 20.97290039 12.36621094 C22.34318536 14.29640952 23.6999801 16.23625753 25.04296875 18.18554688 C27.89790414 22.29129727 30.91475863 26.26722448 33.9375 30.25 C34.90559762 31.54639008 35.87311074 32.843217 36.83984375 34.140625 C38.71974508 36.76573423 38.71974508 36.76573423 40 38 C40 25.46 40 12.92 40 0 C43.96 0 47.92 0 52 0 C52 19.47 52 38.94 52 59 C41 59 41 59 37.64453125 56.01953125 C36.66453764 54.64209298 35.72219799 53.23734147 34.8125 51.8125 C33.7334267 50.26707166 32.65260941 48.72285999 31.5703125 47.1796875 C31.00473633 46.34920898 30.43916016 45.51873047 29.85644531 44.66308594 C26.4649162 39.79790978 22.80358031 35.13655758 19.1875 30.4375 C16.815625 27.323125 14.44375 24.20875 12 21 C11.67 33.54 11.34 46.08 11 59 C7.37 59 3.74 59 0 59 C0 39.53 0 20.06 0 0 Z " fill="#12301B" transform="translate(330,740)"/>
<path d="M0 0 C11 0 11 0 13.83984375 2.0625 C14.53207031 3.031875 15.22429688 4.00125 15.9375 5 C16.33171143 5.52964355 16.72592285 6.05928711 17.13208008 6.60498047 C17.98882458 7.76204259 18.83039437 8.93046102 19.65820312 10.10839844 C21.07825201 12.11031598 22.55350185 14.06005668 24.046875 16.0078125 C29.55529189 23.2152458 34.79381177 30.56258824 40 38 C40.33 25.46 40.66 12.92 41 0 C44.63 0 48.26 0 52 0 C52 19.47 52 38.94 52 59 C42 59 42 59 39.109375 56.5703125 C38.29059044 55.44469389 37.50557751 54.2939859 36.75 53.125 C35.83731987 51.844066 34.92318086 50.5641706 34.0078125 49.28515625 C33.52989258 48.59566895 33.05197266 47.90618164 32.55957031 47.19580078 C29.72658748 43.20709578 26.65545517 39.40187194 23.625 35.5625 C22.46890737 34.08654869 21.31516484 32.60875281 20.1640625 31.12890625 C19.67373535 30.50056885 19.1834082 29.87223145 18.67822266 29.22485352 C16.39218918 26.19421298 14.20646556 23.08905178 12 20 C11.67 32.87 11.34 45.74 11 59 C7.37 59 3.74 59 0 59 C0 39.53 0 20.06 0 0 Z " fill="#12311C" transform="translate(724,740)"/>
<path d="M0 0 C1.64776524 1.39629906 3.21353359 2.8884759 4.7578125 4.3984375 C1.94976982 7.36248255 -0.42534524 9.84342769 -4.2421875 11.3984375 C-5.634375 10.439375 -5.634375 10.439375 -7.0546875 9.4609375 C-13.14522353 5.52000242 -19.17791013 5.82681119 -26.2421875 6.3984375 C-30.16237459 7.35107038 -32.42554196 9.23508312 -34.76953125 12.57421875 C-37.86065692 18.08001876 -39.55254008 23.12365972 -38.2421875 29.3984375 C-36.50310058 34.58505357 -34.39979587 38.36397896 -30.3046875 42.0234375 C-24.83476973 44.56562395 -18.08793805 44.14341834 -12.2421875 43.3984375 C-8.87424595 42.28091891 -8.87424595 42.28091891 -6.2421875 40.3984375 C-5.31843451 38.38849413 -5.31843451 38.38849413 -5.3671875 36.2109375 C-5.3259375 34.9528125 -5.2846875 33.6946875 -5.2421875 32.3984375 C-10.5221875 32.3984375 -15.8021875 32.3984375 -21.2421875 32.3984375 C-21.2421875 29.0984375 -21.2421875 25.7984375 -21.2421875 22.3984375 C-12.3321875 22.3984375 -3.4221875 22.3984375 5.7578125 22.3984375 C6.0053125 27.9053125 6.0053125 27.9053125 6.2578125 33.5234375 C6.33064453 34.6695752 6.40347656 35.81571289 6.47851562 36.99658203 C6.63717709 44.29372983 6.63717709 44.29372983 4.16772461 47.39599609 C-3.00543822 53.01186708 -12.93695197 56.208712 -22.0546875 55.72265625 C-32.00131144 54.24842449 -39.25724826 50.34474145 -45.6953125 42.58203125 C-51.00914013 35.08094629 -51.15237869 26.31417389 -50.2421875 17.3984375 C-48.33685367 9.79978473 -43.37652434 3.25630671 -36.96484375 -1.17578125 C-25.56150004 -7.79768966 -10.94491868 -7.81779905 0 0 Z " fill="#14311D" transform="translate(852.2421875,744.6015625)"/>
<path d="M0 0 C3.96 0 7.92 0 12 0 C12.01458252 1.21582764 12.02916504 2.43165527 12.04418945 3.68432617 C12.10225098 8.20399078 12.1794836 12.72316127 12.26245117 17.24243164 C12.29566354 19.19677702 12.32370695 21.15121747 12.34643555 23.10571289 C12.38004933 25.91854282 12.43236854 28.73050447 12.48828125 31.54296875 C12.49467117 32.41398727 12.5010611 33.2850058 12.50764465 34.18241882 C12.6221243 38.92763096 12.93237152 42.1410768 16 46 C20.60146733 49.26555746 26.62867009 48.60252948 32 48 C35.75310529 45.89826104 37.34354635 43.88497487 39 40 C39.32097828 37.98576875 39.32097828 37.98576875 39.31884766 35.87402344 C39.33871735 35.07349548 39.35858704 34.27296753 39.37905884 33.44818115 C39.39061005 32.59387512 39.40216125 31.73956909 39.4140625 30.859375 C39.43342865 29.97719299 39.4527948 29.09501099 39.4727478 28.18609619 C39.53242848 25.37416184 39.57888283 22.5621863 39.625 19.75 C39.66319038 17.84112819 39.70224273 15.93227341 39.7421875 14.0234375 C39.83812058 9.34909704 39.92219416 4.67467591 40 0 C43.63 0 47.26 0 51 0 C51.12445087 5.79826198 51.21473829 11.59573097 51.2746582 17.39501953 C51.29966047 19.36390747 51.333674 21.33270393 51.37719727 23.30126953 C51.84300928 44.92590723 51.84300928 44.92590723 46 52 C39.9900021 57.79323414 34.02636599 60.00021951 25.6875 60.375 C18.92639823 60.20805922 13.14485425 58.67697574 7.92578125 54.234375 C1.27490967 47.15126648 -0.46838007 39.91300977 -0.29296875 30.46875 C-0.28872391 29.59222778 -0.28447906 28.71570557 -0.28010559 27.81262207 C-0.2634513 25.04142177 -0.22582509 22.27097664 -0.1875 19.5 C-0.17243599 17.60938558 -0.1587506 15.71875964 -0.14648438 13.828125 C-0.11359139 9.21846361 -0.06190255 4.60935938 0 0 Z " fill="#13301C" transform="translate(476,740)"/>
<path d="M0 0 C10.23 0 20.46 0 31 0 C31 1.32 31 2.64 31 4 C27.535 5.485 27.535 5.485 24 7 C23.95371476 15.44039195 23.91815031 23.88073111 23.89637566 32.32121849 C23.88592635 36.24023284 23.87174638 40.15916053 23.84912109 44.078125 C23.82743339 47.85823039 23.81544002 51.63825228 23.81024551 55.41841507 C23.80654241 56.86255839 23.7993114 58.306697 23.78853989 59.7508049 C23.77407983 61.76920894 23.77318355 63.78769652 23.77294922 65.80615234 C23.76628738 67.53156754 23.76628738 67.53156754 23.75949097 69.2918396 C23.72128494 72.14914055 23.72128494 72.14914055 26 74 C27.64991582 74.70710678 29.31562256 75.37943989 31 76 C31 77.32 31 78.64 31 80 C20.77 80 10.54 80 0 80 C0 78.35 0 76.7 0 75 C2.97 74.01 2.97 74.01 6 73 C6 50.89 6 28.78 6 6 C4.02 5.01 2.04 4.02 0 3 C0 2.01 0 1.02 0 0 Z " fill="#16331F" transform="translate(310,611)"/>
<path d="M0 0 C10.23 0 20.46 0 31 0 C30.67 1.32 30.34 2.64 30 4 C28.35 4.66 26.7 5.32 25 6 C25 28.11 25 50.22 25 73 C26.98 73.66 28.96 74.32 31 75 C31 76.65 31 78.3 31 80 C20.77 80 10.54 80 0 80 C0 78.35 0 76.7 0 75 C3.465 74.505 3.465 74.505 7 74 C7.0462833 65.29884419 7.08184872 56.59773058 7.10362434 47.89647865 C7.11407407 43.85639736 7.1282548 39.81640011 7.15087891 35.77636719 C7.17256512 31.87955267 7.18455967 27.98281913 7.18975449 24.08594894 C7.19345786 22.59714864 7.20068938 21.1083529 7.21146011 19.61958694 C7.22591919 17.53877333 7.22798033 15.45829694 7.22705078 13.37744141 C7.231492 12.19163483 7.23593323 11.00582825 7.24050903 9.78408813 C7.28875783 6.85967462 7.28875783 6.85967462 5 5 C3.35008418 4.29289322 1.68437744 3.62056011 0 3 C0 2.01 0 1.02 0 0 Z " fill="#14321E" transform="translate(185,611)"/>
<path d="M0 0 C2.6943689 2.11837555 4.04824468 3.50410903 5.14453125 6.79296875 C2.50453125 8.77296875 -0.13546875 10.75296875 -2.85546875 12.79296875 C-4.3203125 11.5234375 -5.78515625 10.25390625 -7.25 8.984375 C-11.214334 6.04247264 -16.14338411 6.28263467 -20.85546875 6.79296875 C-23.37439545 8.11060204 -23.37439545 8.11060204 -24.85546875 9.79296875 C-25.15657693 12.68201238 -25.15657693 12.68201238 -23.85546875 15.79296875 C-19.84503994 18.25448455 -15.20442293 19.37933449 -10.734375 20.75 C-3.23073797 23.10132696 1.65790141 25.06302398 6.14453125 31.79296875 C6.82373497 37.26608711 6.89334841 42.20893245 4.51953125 47.23046875 C-1.38869603 53.60513503 -6.39046614 56.73458836 -15.16796875 57.10546875 C-23.36985625 56.86833935 -29.91415325 54.23959585 -36.45703125 49.390625 C-37.85546875 47.79296875 -37.85546875 47.79296875 -37.85546875 43.79296875 C-36.32421875 42.30859375 -36.32421875 42.30859375 -34.35546875 41.04296875 C-33.70578125 40.615 -33.05609375 40.18703125 -32.38671875 39.74609375 C-31.62875 39.27429688 -31.62875 39.27429688 -30.85546875 38.79296875 C-29.96859375 39.57671875 -29.08171875 40.36046875 -28.16796875 41.16796875 C-23.31816056 45.14932292 -19.25171424 46.21604667 -13.015625 46.0390625 C-9.89752909 45.68383638 -8.11719623 44.98173727 -5.85546875 42.79296875 C-5.02196924 39.83637002 -5.02196924 39.83637002 -5.85546875 36.79296875 C-9.73406456 32.92920505 -13.66445693 31.67390508 -18.79296875 30.29296875 C-25.67721275 28.42888774 -31.92917178 26.19903223 -35.85546875 19.79296875 C-37.51573336 14.81217492 -37.454503 10.49023246 -35.73046875 5.60546875 C-27.80603544 -6.28118122 -11.58116234 -7.53385087 0 0 Z " fill="#132F1B" transform="translate(444.85546875,743.20703125)"/>
<path d="M0 0 C2.9350162 2.08846636 5.64684729 4.26252149 8 7 C8 7.66 8 8.32 8 9 C6.46875 10.2890625 6.46875 10.2890625 4.5 11.625 C3.8503125 12.07101562 3.200625 12.51703125 2.53125 12.9765625 C2.0259375 13.31429687 1.520625 13.65203125 1 14 C-1.529624 12.78578048 -3.59746859 11.55839278 -5.875 9.875 C-11.3766653 6.70050332 -17.88609303 7.2733772 -24 8 C-29.30673166 10.47037508 -32.53899905 14.22409819 -35.25 19.375 C-37.08593958 25.80078851 -35.86233856 31.16476044 -33 37 C-30.2671735 41.24059284 -27.80441156 43.39852948 -23 45 C-15.56245586 45.88242049 -9.66534342 45.85051428 -3.5859375 41.19140625 C-2 40 -2 40 1 39 C2.82421875 39.99609375 2.82421875 39.99609375 4.6875 41.4375 C5.31011719 41.91058594 5.93273437 42.38367188 6.57421875 42.87109375 C7.04472656 43.24363281 7.51523438 43.61617187 8 44 C5.63674566 49.49842593 1.14541297 52.43021134 -4.10546875 55.05078125 C-11.92452969 58.05592125 -20.37646556 58.26559098 -28.25 55.375 C-37.35593477 51.17226088 -42.51864502 46.00922922 -47 37 C-49.26774945 30.19675164 -49.17477642 20.74192236 -46.4375 14.0625 C-41.54550674 5.0114602 -34.90149435 -0.53473376 -25.046875 -3.609375 C-16.2884444 -5.28083122 -7.873634 -4.14718127 0 0 Z " fill="#14301C" transform="translate(214,743)"/>
<path d="M0 0 C12.54 0 25.08 0 38 0 C34 2 34 2 22 3 C22 15.21 22 27.42 22 40 C26.29 40.66 30.58 41.32 35 42 C34.01 42.495 34.01 42.495 33 43 C32.34786708 45.02463255 32.34786708 45.02463255 32 47 C31.67 46.34 31.34 45.68 31 45 C28.03 45 25.06 45 22 45 C22.02274013 49.2720236 22.09996726 53.54135129 22.1875 57.8125 C22.19330078 59.02744141 22.19910156 60.24238281 22.20507812 61.49414062 C22.23408203 62.65751953 22.26308594 63.82089844 22.29296875 65.01953125 C22.3086792 66.09307861 22.32438965 67.16662598 22.34057617 68.27270508 C22.74402504 71.20929944 22.74402504 71.20929944 25.41918945 72.8112793 C26.27085693 73.20355713 27.12252441 73.59583496 28 74 C28.66 74.33 29.32 74.66 30 75 C30 76.32 30 77.64 30 79 C19.77 79 9.54 79 -1 79 C-1.33 77.68 -1.66 76.36 -2 75 C0.31 74.01 2.62 73.02 5 72 C5.02315806 63.44648426 5.04093279 54.89298159 5.05181217 46.33944225 C5.0570334 42.36780376 5.0641173 38.3961867 5.07543945 34.42456055 C5.08629527 30.59258628 5.09228257 26.76063264 5.09487724 22.92864418 C5.09672662 21.46579984 5.10033792 20.00295665 5.10573006 18.54012108 C5.11297622 16.49311243 5.11398943 14.44618931 5.11352539 12.39916992 C5.11685631 10.65043831 5.11685631 10.65043831 5.12025452 8.86637878 C5.12911233 5.92702989 5.12911233 5.92702989 4 3 C1.99983534 1.79117904 1.99983534 1.79117904 0 1 C0 0.67 0 0.34 0 0 Z " fill="#183621" transform="translate(229,612)"/>
<path d="M0 0 C11.88 0 23.76 0 36 0 C33 2 33 2 23 3 C23 15.21 23 27.42 23 40 C26.465 40.495 26.465 40.495 30 41 C30.33 41.66 30.66 42.32 31 43 C26.545 43.495 26.545 43.495 22 44 C21.97097004 48.24998566 21.95319113 52.49994581 21.9375 56.75 C21.92912109 57.9565625 21.92074219 59.163125 21.91210938 60.40625 C21.90888672 61.56640625 21.90566406 62.7265625 21.90234375 63.921875 C21.89710693 64.99018555 21.89187012 66.05849609 21.88647461 67.15917969 C21.98496992 69.62389235 22.28434536 71.65245467 23 74 C24.11375 73.979375 25.2275 73.95875 26.375 73.9375 C30 74 30 74 32 75 C31.505 76.98 31.505 76.98 31 79 C20.44 79 9.88 79 -1 79 C-1 77.35 -1 75.7 -1 74 C-0.030625 73.690625 0.93875 73.38125 1.9375 73.0625 C4.84065792 72.30476658 4.84065792 72.30476658 6 71 C6.10981004 69.02201152 6.14911678 67.04007983 6.16113281 65.05908203 C6.17074036 63.78751251 6.1803479 62.51594299 6.19024658 61.20584106 C6.19509418 59.80650002 6.1993731 58.40715691 6.203125 57.0078125 C6.20887422 55.58153276 6.21463198 54.15525306 6.22039795 52.72897339 C6.2309173 49.73451374 6.2367537 46.74008101 6.24023438 43.74560547 C6.24571846 39.90633942 6.26974028 36.06742816 6.29820633 32.22827339 C6.31682091 29.28061888 6.32203768 26.33304997 6.32357025 23.38534164 C6.32660046 21.96992937 6.3346414 20.55451873 6.34775543 19.13916397 C6.36478793 17.15941614 6.36109493 15.17952267 6.35644531 13.19970703 C6.36009094 12.07243195 6.36373657 10.94515686 6.36749268 9.78372192 C6.23430785 7.00775699 6.23430785 7.00775699 4.66522217 5.23751831 C3.14596771 4.10847665 1.57494378 3.04996252 0 2 C0 1.34 0 0.68 0 0 Z " fill="#14341E" transform="translate(616,612)"/>
<path d="M0 0 C5.7287763 2.0799313 9.09825646 5.66079189 12 11 C13.99374888 16.98124663 13.99908576 23.67434022 11.3125 29.4375 C8.63918636 34.05675925 4.90048535 36.96534619 0 39 C-6.38452627 39.68469154 -12.66709645 39.93619072 -18 36 C-23.34723781 30.88525079 -25.9394049 26.08365489 -26.4375 18.625 C-26.28769505 12.69272405 -23.55504089 8.51755863 -19.40234375 4.42578125 C-13.28296888 -0.82154511 -7.87038602 -0.81005143 0 0 Z " fill="#F6F5F4" transform="translate(280,750)"/>
<path d="M0 0 C15.84 0 31.68 0 48 0 C48 3.3 48 6.6 48 10 C42.06 10 36.12 10 30 10 C30 26.17 30 42.34 30 59 C26.04 59 22.08 59 18 59 C18 42.83 18 26.66 18 10 C12.06 10 6.12 10 0 10 C0 6.7 0 3.4 0 0 Z " fill="#14311D" transform="translate(608,740)"/>
<path d="M0 0 C3.96 0 7.92 0 12 0 C12 16.17 12 32.34 12 49 C20.91 49 29.82 49 39 49 C39 52.3 39 55.6 39 59 C26.13 59 13.26 59 0 59 C0 39.53 0 20.06 0 0 Z " fill="#112F1A" transform="translate(555,740)"/>
<path d="M0 0 C14 0 14 0 17.6875 1.6875 C21.77938986 5.77938986 23.38625656 8.9430316 23.45898438 14.83398438 C23.45189453 15.52814453 23.44480469 16.22230469 23.4375 16.9375 C23.4674707 17.97293945 23.4674707 17.97293945 23.49804688 19.02929688 C23.49317614 24.16791784 22.19127813 27.03759519 19 31 C12.88924744 36.37005528 9.00358142 35 0 35 C0 23.45 0 11.9 0 0 Z " fill="#F5F5F3" transform="translate(251,616)"/>
<path d="M0 0 C15.22580645 0 15.22580645 0 19 3 C23.59791848 8.44490346 23.61239517 13.69136725 23.375 20.6796875 C22.8442382 25.37914094 22.11852883 27.41369185 19 31 C12.89224752 35.78560371 8.06393508 35 0 35 C0 23.45 0 11.9 0 0 Z " fill="#F6F6F4" transform="translate(639,616)"/>
<path d="M0 0 C0.99 0.33 1.98 0.66 3 1 C2.34 1 1.68 1 1 1 C0.90912109 1.93972656 0.90912109 1.93972656 0.81640625 2.8984375 C0.73261719 3.71570313 0.64882813 4.53296875 0.5625 5.375 C0.48128906 6.18710937 0.40007812 6.99921875 0.31640625 7.8359375 C0 10 0 10 -1 12 C-0.34 12 0.32 12 1 12 C-0.96629649 19.69146826 -3.36328844 27.12206465 -6.125 34.5625 C-6.48464844 35.54541016 -6.84429687 36.52832031 -7.21484375 37.54101562 C-9.83445617 44.66891234 -9.83445617 44.66891234 -11 47 C-3.41 47 4.18 47 12 47 C12 47.33 12 47.66 12 48 C1.605 48.495 1.605 48.495 -9 49 C-9 49.33 -9 49.66 -9 50 C-1.41 50.33 6.18 50.66 14 51 C14 51.33 14 51.66 14 52 C5.09 52 -3.82 52 -13 52 C-14.95852527 59.18125933 -16.41065754 64.81002196 -17 72 C-14.69 72.66 -12.38 73.32 -10 74 C-10 75.65 -10 77.3 -10 79 C-18.25 79 -26.5 79 -35 79 C-35 77.35 -35 75.7 -35 74 C-33.63875 73.505 -33.63875 73.505 -32.25 73 C-25.36206208 68.76126897 -23.012968 58.26086936 -20.15625 50.9765625 C-19.70527954 49.83520844 -19.25430908 48.69385437 -18.78967285 47.51791382 C-17.35638219 43.88827296 -15.92808031 40.2566936 -14.5 36.625 C-13.54070196 34.19257525 -12.58106975 31.76028226 -11.62109375 29.328125 C-9.85141206 24.84408664 -8.08404666 20.35914764 -6.31835938 15.87353516 C-4.23060366 10.57495887 -2.12164365 5.2850904 0 0 Z " fill="#102616" transform="translate(446,612)"/>
<path d="M0 0 C3.63 0 7.26 0 11 0 C11 19.47 11 38.94 11 59 C7.37 59 3.74 59 0 59 C0 39.53 0 20.06 0 0 Z " fill="#0E2C17" transform="translate(683,740)"/>
<path d="M0 0 C1.25541557 3.76624671 0.37061958 5.37188934 -1 9 C-0.01 8.67 0.98 8.34 2 8 C1.4114413 14.48320047 -0.67314532 20.17431559 -2.9375 26.25 C-3.29779297 27.24257813 -3.65808594 28.23515625 -4.02929688 29.2578125 C-6.72675737 36.59013605 -6.72675737 36.59013605 -9 40 C-1.08 40 6.84 40 15 40 C15 40.33 15 40.66 15 41 C4.605 41.495 4.605 41.495 -6 42 C-6 42.33 -6 42.66 -6 43 C1.59 43.33 9.18 43.66 17 44 C17 44.33 17 44.66 17 45 C7.76 45 -1.48 45 -11 45 C-11.66 47.97 -12.32 50.94 -13 54 C-13.37125 55.0725 -13.7425 56.145 -14.125 57.25 C-15.00221477 60.00696072 -15.16887928 62.12905232 -15 65 C-12.69 65.66 -10.38 66.32 -8 67 C-8 68.65 -8 70.3 -8 72 C-15.92 72 -23.84 72 -32 72 C-32.33 70.68 -32.66 69.36 -33 68 C-32.05125 67.773125 -31.1025 67.54625 -30.125 67.3125 C-26.86411825 66.35302071 -26.86411825 66.35302071 -25.95678711 63.78344727 C-25.64104736 62.86490967 -25.32530762 61.94637207 -25 61 C-24.19186822 59.04950805 -23.38038788 57.10040168 -22.56640625 55.15234375 C-16.71469311 41.10567344 -10.98155437 27.02521536 -5.47875977 12.83764648 C-5.05006592 11.73493408 -4.62137207 10.63222168 -4.1796875 9.49609375 C-3.80569824 8.52857178 -3.43170898 7.5610498 -3.04638672 6.56420898 C-2.12683302 4.31080897 -1.1246601 2.15681707 0 0 Z " fill="#0D2213" transform="translate(129,619)"/>
<path d="M0 0 C0.66 0 1.32 0 2 0 C2 9.9 2 19.8 2 30 C6.33125 29.87625 6.33125 29.87625 10.75 29.75 C12.10496582 29.72631348 12.10496582 29.72631348 13.48730469 29.70214844 C17.31622671 29.53954334 19.4023058 29.45011539 22.53125 27.09375 C23.99653882 25.00493402 24.64123967 23.51132228 25 21 C26.32 21 27.64 21 29 21 C29 29.25 29 37.5 29 46 C27.68 45.67 26.36 45.34 25 45 C23.98308736 43.00854609 22.98357352 41.00812926 22 39 C16.35411136 35.85159747 16.35411136 35.85159747 2 36 C2 46.89 2 57.78 2 69 C9.92 69 17.84 69 26 69 C22.7840895 71.14394034 21.88969066 71.25580474 18.18359375 71.265625 C16.79043945 71.26949219 16.79043945 71.26949219 15.36914062 71.2734375 C14.40169922 71.26570312 13.43425781 71.25796875 12.4375 71.25 C10.98053711 71.26160156 10.98053711 71.26160156 9.49414062 71.2734375 C8.56666016 71.27085937 7.63917969 71.26828125 6.68359375 71.265625 C5.83337646 71.26336914 4.98315918 71.26111328 4.10717773 71.25878906 C2 71 2 71 0 69 C-0.18721852 66.50256138 -0.25579767 64.11811317 -0.23046875 61.62109375 C-0.23001053 60.89382584 -0.22955231 60.16655792 -0.2290802 59.41725159 C-0.22605836 57.87979501 -0.21817405 56.34234148 -0.20581055 54.80493164 C-0.18754573 52.44341265 -0.1853009 50.08228539 -0.18554688 47.72070312 C-0.18063203 46.22916326 -0.17480386 44.73762606 -0.16796875 43.24609375 C-0.16685593 42.53569443 -0.1657431 41.8252951 -0.16459656 41.09336853 C-0.11605365 36.11605365 -0.11605365 36.11605365 1 35 C4.21019977 34.7637353 7.41273872 34.60339698 10.62890625 34.48242188 C12.42413939 34.39075776 14.21385947 34.20240144 16 34 C16.33 33.34 16.66 32.68 17 32 C15.85660156 32.01160156 14.71320312 32.02320313 13.53515625 32.03515625 C12.04427246 32.04453288 10.55338691 32.05363321 9.0625 32.0625 C8.30775391 32.07087891 7.55300781 32.07925781 6.77539062 32.08789062 C4.85005687 32.09652441 2.92464419 32.05224333 1 32 C0 31 0 31 -0.11352539 28.04077148 C-0.10828857 26.74727783 -0.10305176 25.45378418 -0.09765625 24.12109375 C-0.0962413 23.4344313 -0.09482635 22.74776886 -0.09336853 22.04029846 C-0.08775479 19.83932199 -0.07520007 17.63844591 -0.0625 15.4375 C-0.05748676 13.94856917 -0.05292355 12.45963676 -0.04882812 10.97070312 C-0.03778093 7.31376925 -0.02050713 3.65689442 0 0 Z " fill="#0A2410" transform="translate(719,616)"/>
<path d="M0 0 C8.25 0 16.5 0 25 0 C24.67 1.32 24.34 2.64 24 4 C23.030625 4.2475 22.06125 4.495 21.0625 4.75 C20.051875 5.1625 19.04125 5.575 18 6 C15.44820219 13.05566214 15.65463324 20.25805904 15.5859375 27.6875 C15.56657135 28.98574707 15.5472052 30.28399414 15.5272522 31.62158203 C15.47625263 35.04747594 15.43645648 38.4734088 15.39910889 41.8994751 C15.3588656 45.40573509 15.30786677 48.91183753 15.2578125 52.41796875 C15.16143518 59.27853028 15.07691015 66.13919333 15 73 C14.67 73 14.34 73 14 73 C13.67 60.46 13.34 47.92 13 35 C12.34 41.6 11.68 48.2 11 55 C9.02 55.495 9.02 55.495 7 56 C5.68 54.35 4.36 52.7 3 51 C3.33 50.34 3.66 49.68 4 49 C5.32 50.32 6.64 51.64 8 53 C8.07416092 46.80699281 8.12860756 40.61424416 8.16479492 34.42089844 C8.17988069 32.3140818 8.20035193 30.20729656 8.22631836 28.10058594 C8.26271053 25.0721868 8.2797285 22.04420291 8.29296875 19.015625 C8.30845261 18.07382385 8.32393646 17.13202271 8.33988953 16.16168213 C8.34011612 15.28107117 8.34034271 14.40046021 8.34057617 13.49316406 C8.34723801 12.72039124 8.35389984 11.94761841 8.36076355 11.15142822 C7.89887257 8.39692243 6.89131017 7.02841294 5 5 C2.40144267 4.1957792 2.40144267 4.1957792 0 4 C0 2.68 0 1.36 0 0 Z " fill="#0C2713" transform="translate(902,611)"/>
<path d="M0 0 C0.66 0 1.32 0 2 0 C3.4304204 3.78795106 4.8543979 7.57825448 6.27246094 11.37084961 C6.75572265 12.66057458 7.24073669 13.94964438 7.72753906 15.23803711 C8.42713915 17.09054958 9.11991233 18.94563569 9.8125 20.80078125 C10.23144531 21.91622314 10.65039062 23.03166504 11.08203125 24.1809082 C12 27 12 27 12 30 C4.74 30 -2.52 30 -10 30 C-7.46273527 19.7016902 -3.75373303 9.90264656 0 0 Z " fill="#F4F4F2" transform="translate(131,628)"/>
<path d="M0 0 C2.56371524 2.56371524 3.18033116 4.89786561 4.3828125 8.3203125 C4.60194305 8.93897186 4.82107361 9.55763123 5.04684448 10.19503784 C5.74494024 12.16984387 6.43504992 14.14733516 7.125 16.125 C7.59713266 17.46502834 8.06978273 18.8048745 8.54296875 20.14453125 C9.70231213 23.42730354 10.85081549 26.71358675 12 30 C4.74 30 -2.52 30 -10 30 C-7.75 19.875 -7.75 19.875 -6.0546875 15.52734375 C-5.70019531 14.60888672 -5.34570312 13.69042969 -4.98046875 12.74414062 C-4.43326172 11.35485352 -4.43326172 11.35485352 -3.875 9.9375 C-3.50246094 8.97650391 -3.12992187 8.01550781 -2.74609375 7.02539062 C-1.83644515 4.68129617 -0.92101046 2.33964819 0 0 Z " fill="#F5F5F3" transform="translate(446,628)"/>
<path d="M0 0 C1.11483765 0.00410889 1.11483765 0.00410889 2.25219727 0.00830078 C21.23350193 0.35850193 21.23350193 0.35850193 26.1875 5.3125 C27.64848971 11.88695367 27.27818282 18.61204715 27.1875 25.3125 C25.8675 25.3125 24.5475 25.3125 23.1875 25.3125 C22.82398438 24.57644531 22.46046875 23.84039063 22.0859375 23.08203125 C17.36582496 13.78651605 17.36582496 13.78651605 8.76171875 8.390625 C4.61604311 7.08857576 0.45284766 6.13363645 -3.8125 5.3125 C-3.1525 4.6525 -2.4925 3.9925 -1.8125 3.3125 C-5.1125 2.9825 -8.4125 2.6525 -11.8125 2.3125 C-7.58161598 0.19705799 -4.58282189 -0.0339354 0 0 Z " fill="#112D19" transform="translate(570.8125,608.6875)"/>
<path d="M0 0 C3.96 0 7.92 0 12 0 C12 19.47 12 38.94 12 59 C8.7 59 5.4 59 2 59 C2 58.67 2 58.34 2 58 C4.31 58 6.62 58 9 58 C9 39.85 9 21.7 9 3 C7.02 3 5.04 3 3 3 C3 14.88 3 26.76 3 39 C2.01 38.67 1.02 38.34 0 38 C0 25.46 0 12.92 0 0 Z " fill="#283D2E" transform="translate(370,740)"/>
<path d="M0 0 C1.32 0 2.64 0 4 0 C4 7.92 4 15.84 4 24 C2.68 24 1.36 24 0 24 C-0.433125 22.88625 -0.86625 21.7725 -1.3125 20.625 C-2.69911119 16.82487666 -2.69911119 16.82487666 -6 15 C-7.92744369 14.6373883 -7.92744369 14.6373883 -10.01171875 14.5859375 C-10.69451904 14.55032715 -11.37731934 14.5147168 -12.08081055 14.47802734 C-12.94101807 14.44402832 -13.80122559 14.4100293 -14.6875 14.375 C-17.430625 14.25125 -20.17375 14.1275 -23 14 C-23 24.89 -23 35.78 -23 47 C-15.08 47 -7.16 47 1 47 C-2.2159105 49.14394034 -3.11030934 49.25580474 -6.81640625 49.265625 C-8.20956055 49.26949219 -8.20956055 49.26949219 -9.63085938 49.2734375 C-10.59830078 49.26570312 -11.56574219 49.25796875 -12.5625 49.25 C-14.01946289 49.26160156 -14.01946289 49.26160156 -15.50585938 49.2734375 C-16.43333984 49.27085937 -17.36082031 49.26828125 -18.31640625 49.265625 C-19.16662354 49.26336914 -20.01684082 49.26111328 -20.89282227 49.25878906 C-23 49 -23 49 -25 47 C-25.18721852 44.50256138 -25.25579767 42.11811317 -25.23046875 39.62109375 C-25.23001053 38.89382584 -25.22955231 38.16655792 -25.2290802 37.41725159 C-25.22605836 35.87979501 -25.21817405 34.34234148 -25.20581055 32.80493164 C-25.18754573 30.44341265 -25.1853009 28.08228539 -25.18554688 25.72070312 C-25.18063203 24.22916326 -25.17480386 22.73762606 -25.16796875 21.24609375 C-25.16685593 20.53569443 -25.1657431 19.8252951 -25.16459656 19.09336853 C-25.11605365 14.11605365 -25.11605365 14.11605365 -24 13 C-20.44758134 12.83011813 -16.90182698 12.70269175 -13.34570312 12.65820312 C-9.62147733 12.52050604 -7.59771444 12.43882832 -4.53125 10.1875 C-2.50858859 7.2979837 -1.83453706 4.40234341 -1 1 C-0.67 0.67 -0.34 0.34 0 0 Z " fill="#0C2613" transform="translate(818,638)"/>
<path d="M0 0 C0.66 0.66 1.32 1.32 2 2 C2.66 1.67 3.32 1.34 4 1 C3.15314782 5.61157125 1.8165429 10.00406909 0.42578125 14.4765625 C-0.33657074 17.23766523 -0.33657074 17.23766523 2 20 C5.55672179 21.2188121 5.55672179 21.2188121 9 22 C9 23.65 9 25.3 9 27 C0.75 27 -7.5 27 -16 27 C-16 25.35 -16 23.7 -16 22 C-15.0925 21.67 -14.185 21.34 -13.25 21 C-9.47018541 18.67396025 -8.56629192 16.89036023 -6.859375 12.9375 C-6 11 -6 11 -4 8 C-3.67 8.33 -3.34 8.66 -3 9 C-2.01 6.03 -1.02 3.06 0 0 Z " fill="#17321F" transform="translate(427,664)"/>
<path d="M0 0 C3.96 0 7.92 0 12 0 C12 16.17 12 32.34 12 49 C11.34 49 10.68 49 10 49 C10 33.49 10 17.98 10 2 C7.69 2 5.38 2 3 2 C3 20.48 3 38.96 3 58 C1.515 58.495 1.515 58.495 0 59 C0 39.53 0 20.06 0 0 Z " fill="#2F4435" transform="translate(555,740)"/>
<path d="M0 0 C0.33 0 0.66 0 1 0 C2.14450015 6.36405447 2.12790118 12.6049759 2.09765625 19.05859375 C2.0962413 20.20288345 2.09482635 21.34717316 2.09336853 22.52613831 C2.08779301 26.16328601 2.07524498 29.80037105 2.0625 33.4375 C2.05748184 35.9108064 2.05291948 38.38411377 2.04882812 40.85742188 C2.03783159 46.90497188 2.02058381 52.95247533 2 59 C5.63 59 9.26 59 13 59 C13 45.8 13 32.6 13 19 C14.32 20.65 15.64 22.3 17 24 C16.67 24.33 16.34 24.66 16 25 C15.85236034 27.57988885 15.76504101 30.13648093 15.71875 32.71875 C15.70034058 33.49182495 15.68193115 34.2648999 15.66296387 35.06140137 C15.60403353 37.54085468 15.55128931 40.02037753 15.5 42.5 C15.43255732 45.76057003 15.35888931 49.02090865 15.28125 52.28125 C15.26767456 53.03853394 15.25409912 53.79581787 15.2401123 54.5760498 C15.11280181 59.88719819 15.11280181 59.88719819 14 61 C12.02287193 61.09900199 10.04209962 61.12970773 8.0625 61.125 C6.44021484 61.12886719 6.44021484 61.12886719 4.78515625 61.1328125 C2 61 2 61 0 60 C0 40.2 0 20.4 0 0 Z " fill="#FBFCFB" transform="translate(328,740)"/>
<path d="M0 0 C17.82 0 35.64 0 54 0 C55.125 10.125 55.125 10.125 55.0625 15.0625 C55.05347656 16.00222656 55.04445313 16.94195313 55.03515625 17.91015625 C55.02355469 18.59980469 55.01195312 19.28945313 55 20 C53.68 20 52.36 20 51 20 C50.75765625 19.39671875 50.5153125 18.7934375 50.265625 18.171875 C47.65285274 11.88044829 47.65285274 11.88044829 43 7 C40.2097333 6.0699111 38.23470458 5.81301231 35.33203125 5.68359375 C34.43935547 5.64169922 33.54667969 5.59980469 32.62695312 5.55664062 C31.69818359 5.51732422 30.76941406 5.47800781 29.8125 5.4375 C28.87212891 5.39431641 27.93175781 5.35113281 26.96289062 5.30664062 C24.64207146 5.20061335 22.32114675 5.09854971 20 5 C20 4.67 20 4.34 20 4 C29.9 3.505 29.9 3.505 40 3 C40 2.67 40 2.34 40 2 C20.2 1.505 20.2 1.505 0 1 C0 0.67 0 0.34 0 0 Z " fill="#081A0D" transform="translate(775,611)"/>
<path d="M0 0 C0.66 0.33 1.32 0.66 2 1 C1.99333817 1.83271927 1.98667633 2.66543854 1.97981262 3.52339172 C1.91973307 11.36613089 1.87404172 19.20879291 1.84456348 27.05170918 C1.82889898 31.08397033 1.8076467 35.11604153 1.77368164 39.14819336 C1.74111571 43.0385392 1.72315289 46.9287022 1.71536827 50.81917381 C1.70981974 52.30437283 1.69898489 53.7895617 1.68280983 55.274683 C1.66107149 57.35302072 1.65803144 59.43060032 1.65942383 61.5090332 C1.65276199 62.69261917 1.64610016 63.87620514 1.63923645 65.09565735 C1.74578281 68.02209766 1.74578281 68.02209766 3.52128601 69.90568542 C4.00926163 70.26680923 4.49723724 70.62793304 5 71 C3.0625 70.6875 3.0625 70.6875 1 70 C0.67 69.01 0.34 68.02 0 67 C-0.66 67 -1.32 67 -2 67 C-2 45.55 -2 24.1 -2 2 C-1.34 2 -0.68 2 0 2 C0 1.34 0 0.68 0 0 Z " fill="#293D2D" transform="translate(208,616)"/>
<path d="M0 0 C3.63 0 7.26 0 11 0 C11.99 0.99 12.98 1.98 14 3 C13.67 3.66 13.34 4.32 13 5 C12.34 4.34 11.68 3.68 11 3 C8.03 2.67 5.06 2.34 2 2 C2 20.48 2 38.96 2 58 C4.64 58 7.28 58 10 58 C10 45.13 10 32.26 10 19 C10.33 19 10.66 19 11 19 C11 32.2 11 45.4 11 59 C7.37 59 3.74 59 0 59 C0 39.53 0 20.06 0 0 Z " fill="#021605" transform="translate(724,740)"/>
<path d="M0 0 C18.81 0 37.62 0 57 0 C57.6376085 5.10086797 58.11969716 9.46665034 58.0625 14.5 C58.05347656 15.5415625 58.04445313 16.583125 58.03515625 17.65625 C58.02355469 18.4296875 58.01195312 19.203125 58 20 C56.68 20 55.36 20 54 20 C53.75765625 19.41992188 53.5153125 18.83984375 53.265625 18.2421875 C50.29844839 11.22880892 50.29844839 11.22880892 46 5 C42.38583483 3.56082568 42.38583483 3.56082568 39 3 C39 2.67 39 2.34 39 2 C40.14339844 2.01160156 41.28679688 2.02320313 42.46484375 2.03515625 C43.95572754 2.04453288 45.44661309 2.05363321 46.9375 2.0625 C47.69224609 2.07087891 48.44699219 2.07925781 49.22460938 2.08789062 C51.14994313 2.09652441 53.07535581 2.05224333 55 2 C55.33 1.67 55.66 1.34 56 1 C37.52 1 19.04 1 0 1 C0 0.67 0 0.34 0 0 Z " fill="#0A1D0F" transform="translate(698,611)"/>
<path d="M0 0 C0.66 0 1.32 0 2 0 C2 0.66 2 1.32 2 2 C4.64 2 7.28 2 10 2 C10 14.21 10 26.42 10 39 C9.67 39 9.34 39 9 39 C9 27.12 9 15.24 9 3 C7.02 3 5.04 3 3 3 C2.97517282 8.28360659 2.95707993 13.56717878 2.94506836 18.85083008 C2.94005775 20.6460835 2.93324745 22.44133287 2.92456055 24.23657227 C2.9123511 26.82569378 2.90673884 29.41476107 2.90234375 32.00390625 C2.89718246 32.79898087 2.89202118 33.59405548 2.88670349 34.41322327 C2.88624293 39.04898956 3.23115689 43.4268467 4 48 C0.5044487 44.5044487 -0.10861194 40.44393898 -0.22705078 35.64697266 C-0.22673729 33.98596894 -0.21562634 32.32494202 -0.1953125 30.6640625 C-0.1924826 29.78471039 -0.18965271 28.90535828 -0.18673706 27.99935913 C-0.17559712 25.20776406 -0.15050411 22.4164971 -0.125 19.625 C-0.1149622 17.72526507 -0.10583775 15.82552508 -0.09765625 13.92578125 C-0.07567806 9.28372893 -0.0411911 4.64191998 0 0 Z " fill="#243D2B" transform="translate(476,740)"/>
<path d="M0 0 C1.62463842 -0.05395478 3.24978541 -0.09277195 4.875 -0.125 C5.77992188 -0.14820313 6.68484375 -0.17140625 7.6171875 -0.1953125 C10 0 10 0 12 2 C12.24723816 4.51161194 12.24723816 4.51161194 12.24291992 7.71899414 C12.24599655 8.9168605 12.24907318 10.11472687 12.25224304 11.34889221 C12.24505753 12.64785934 12.23787201 13.94682648 12.23046875 15.28515625 C12.229277 16.62511653 12.22882378 17.96507766 12.2290802 19.30503845 C12.22751528 22.11364977 12.21922423 24.92213363 12.20581055 27.73071289 C12.18880427 31.3379792 12.18499666 34.94510557 12.18575573 38.55240726 C12.18548436 41.31897833 12.18000875 44.08551856 12.17275429 46.85207939 C12.16800773 48.83140054 12.16628961 50.8107282 12.16459656 52.79005432 C12.15821671 53.98476852 12.15183685 55.17948273 12.14526367 56.41040039 C12.14145187 57.46804092 12.13764008 58.52568146 12.13371277 59.6153717 C12 62 12 62 11 63 C9.14712498 63.07226502 7.29166122 63.0838122 5.4375 63.0625 C4.42558594 63.05347656 3.41367187 63.04445313 2.37109375 63.03515625 C1.19740234 63.01775391 1.19740234 63.01775391 0 63 C0 62.01 0 61.02 0 60 C3.3 60.33 6.6 60.66 10 61 C10 41.53 10 22.06 10 2 C6.37 2 2.74 2 -1 2 C-0.67 1.34 -0.34 0.68 0 0 Z " fill="#FCFCFB" transform="translate(766,738)"/>
<path d="M0 0 C1 3 1 3 0 6 C0.99 6.33 1.98 6.66 3 7 C3.433125 8.134375 3.86625 9.26875 4.3125 10.4375 C5.63013377 14.26295465 5.63013377 14.26295465 9.125 15.25 C10.07375 15.4975 11.0225 15.745 12 16 C12.33 16.99 12.66 17.98 13 19 C5.08 19 -2.84 19 -11 19 C-11.33 17.68 -11.66 16.36 -12 15 C-10.576875 14.6596875 -10.576875 14.6596875 -9.125 14.3125 C-5.89484014 13.34407875 -5.89484014 13.34407875 -4.875 10.875 C-4.441875 9.451875 -4.441875 9.451875 -4 8 C-3.31247302 6.55243342 -2.60277602 5.11525503 -1.875 3.6875 C-1.34519531 2.64142578 -1.34519531 2.64142578 -0.8046875 1.57421875 C-0.53914063 1.05472656 -0.27359375 0.53523437 0 0 Z " fill="#1C3925" transform="translate(108,672)"/>
<path d="M0 0 C0.66 0.33 1.32 0.66 2 1 C3.81171098 1.15306901 5.6283794 1.24946661 7.4453125 1.31640625 C8.52167969 1.35830078 9.59804688 1.40019531 10.70703125 1.44335938 C12.39892578 1.50233398 12.39892578 1.50233398 14.125 1.5625 C15.26066406 1.60568359 16.39632813 1.64886719 17.56640625 1.69335938 C20.37747768 1.7996604 23.18863945 1.90169405 26 2 C26 2.33 26 2.66 26 3 C15.605 3.495 15.605 3.495 5 4 C5 4.33 5 4.66 5 5 C12.59 5.33 20.18 5.66 28 6 C28 6.33 28 6.66 28 7 C19.09 7 10.18 7 1 7 C0.01 10.63 -0.98 14.26 -2 18 C-2.96467347 20.67964852 -3.95089782 23.35226593 -5 26 C-6.31225809 22.06322574 -5.3393954 20.2205738 -4.0625 16.3125 C-3.68222656 15.13300781 -3.30195313 13.95351563 -2.91015625 12.73828125 C-2.60980469 11.83464844 -2.30945313 10.93101562 -2 10 C-2.99 10 -3.98 10 -5 10 C-5.99 12.31 -6.98 14.62 -8 17 C-9.30179261 13.396974 -8.70754688 11.3234544 -7.3125 7.8125 C-6.97863281 6.93207031 -6.64476562 6.05164063 -6.30078125 5.14453125 C-5 3 -5 3 -2.91796875 2.32421875 C-1.96857422 2.16373047 -1.96857422 2.16373047 -1 2 C-0.67 1.34 -0.34 0.68 0 0 Z " fill="#0A1B0E" transform="translate(432,657)"/>
<path d="M0 0 C6.29879297 -0.05082181 12.5975328 -0.08578472 18.89648438 -0.10986328 C21.03810604 -0.11990416 23.17971405 -0.13353954 25.32128906 -0.15087891 C28.40433121 -0.17521118 31.48719165 -0.18650242 34.5703125 -0.1953125 C35.52366486 -0.20563507 36.47701721 -0.21595764 37.45925903 -0.22659302 C42.38457948 -0.22741927 46.38011328 0.0565542 51 2 C48.05496784 2.8906081 45.90819367 3.00585845 42.875 2.5703125 C35.72921412 1.75447571 28.5841747 1.85043669 21.40185547 1.86962891 C18.97747727 1.87505037 16.55327927 1.86962394 14.12890625 1.86328125 C12.58593709 1.86394101 11.04296805 1.86522006 9.5 1.8671875 C8.77611084 1.86516327 8.05222168 1.86313904 7.30639648 1.86105347 C3.5275353 1.81836851 3.5275353 1.81836851 0 3 C0 2.01 0 1.02 0 0 Z M39 3 C39 3.66 39 4.32 39 5 C34.05 5 29.1 5 24 5 C24 16.88 24 28.76 24 41 C23.67 41 23.34 41 23 41 C22.97535072 35.74894558 22.95716432 30.49792455 22.94506836 25.24682617 C22.94002782 23.45905979 22.93319546 21.67129755 22.92456055 19.88354492 C22.9124827 17.31948832 22.90676906 14.75548603 22.90234375 12.19140625 C22.89718246 11.3872377 22.89202118 10.58306915 22.88670349 9.75453186 C22.88650785 7.83598285 22.93798017 5.91754632 23 4 C26.20837315 0.79162685 35.027893 1.8083679 39 3 Z " fill="#051207" transform="translate(615,611)"/>
<path d="M0 0 C0.33 0 0.66 0 1 0 C1.08720919 3.58317958 1.14046112 7.16608567 1.1875 10.75 C1.21263672 11.76578125 1.23777344 12.7815625 1.26367188 13.828125 C1.27333984 14.8078125 1.28300781 15.7875 1.29296875 16.796875 C1.3086792 17.69760742 1.32438965 18.59833984 1.34057617 19.52636719 C0.93666679 22.4599943 -0.10410867 23.77703696 -2 26 C-2 26.33 -2 26.66 -2 27 C3.3503559 26.42978066 8.67787852 25.79265639 14 25 C11.09361794 26.93758804 9.07965696 27.67428145 5.75 28.5625 C4.83734375 28.81128906 3.9246875 29.06007813 2.984375 29.31640625 C-3.0354814 30.69530006 -8.76775025 31.11709956 -14.9375 31.0625 C-15.62134766 31.05798828 -16.30519531 31.05347656 -17.00976562 31.04882812 C-18.67321604 31.0371956 -20.3366205 31.01926694 -22 31 C-21.01 30.01 -20.02 29.02 -19 28 C-19.66 27.01 -20.32 26.02 -21 25 C-20.21496094 25.03480469 -19.42992187 25.06960938 -18.62109375 25.10546875 C-12.23441819 25.2700334 -7.62095571 25.12275317 -2 22 C-0.38219843 20.38219843 -0.77727853 18.54364482 -0.68359375 16.30859375 C-0.64169922 15.36435547 -0.59980469 14.42011719 -0.55664062 13.44726562 C-0.51732422 12.45404297 -0.47800781 11.46082031 -0.4375 10.4375 C-0.39431641 9.44041016 -0.35113281 8.44332031 -0.30664062 7.41601562 C-0.20019702 4.9441585 -0.09818072 2.4721969 0 0 Z " fill="#09180C" transform="translate(583,661)"/>
<path d="M0 0 C0.33 0.66 0.66 1.32 1 2 C1.56154282 1.97272324 2.12308563 1.94544647 2.7016449 1.91734314 C8.5245265 1.63551539 14.34771628 1.36091016 20.17114258 1.09057617 C22.34701228 0.98860515 24.52279528 0.88476685 26.69848633 0.77905273 C29.81831517 0.627784 32.93838999 0.4831426 36.05859375 0.33984375 C37.03775253 0.29093491 38.01691132 0.24202606 39.02574158 0.19163513 C40.37702904 0.13145958 40.37702904 0.13145958 41.75561523 0.07006836 C42.55281479 0.03231796 43.35001434 -0.00543243 44.17137146 -0.04432678 C46 0 46 0 47 1 C48.68183948 1.23287008 50.3712416 1.41264166 52.0625 1.5625 C52.98160156 1.64628906 53.90070312 1.73007812 54.84765625 1.81640625 C55.91306641 1.90728516 55.91306641 1.90728516 57 2 C57 2.33 57 2.66 57 3 C37.86 3 18.72 3 -1 3 C-0.67 2.01 -0.34 1.02 0 0 Z " fill="#1B3F27" transform="translate(699,686)"/>
<path d="M0 0 C0.33 0 0.66 0 1 0 C1.02505615 0.6612085 1.0501123 1.32241699 1.07592773 2.00366211 C1.19153102 4.98182305 1.31441754 7.9596392 1.4375 10.9375 C1.47681641 11.97841797 1.51613281 13.01933594 1.55664062 14.09179688 C1.59853516 15.08115234 1.64042969 16.07050781 1.68359375 17.08984375 C1.72025146 18.00628662 1.75690918 18.92272949 1.79467773 19.86694336 C1.77003864 21.9820728 1.77003864 21.9820728 3 23 C3.08758003 24.99964982 3.10696576 27.0023611 3.09765625 29.00390625 C3.09443359 30.21884766 3.09121094 31.43378906 3.08789062 32.68554688 C3.07951172 33.96494141 3.07113281 35.24433594 3.0625 36.5625 C3.05798828 37.84576172 3.05347656 39.12902344 3.04882812 40.45117188 C3.03699545 43.63416022 3.02051068 46.81705762 3 50 C2.01 50 1.02 50 0 50 C0 33.5 0 17 0 0 Z " fill="#EBEDEA" transform="translate(850,629)"/>
<path d="M0 0 C0.66 0 1.32 0 2 0 C2 0.66 2 1.32 2 2 C17.01114286 1.50456697 32.01317139 1.00625849 47 0 C47 0.33 47 0.66 47 1 C50.3 1.33 53.6 1.66 57 2 C57.33 1.34 57.66 0.68 58 0 C58 0.99 58 1.98 58 3 C38.53 3 19.06 3 -1 3 C-0.67 2.01 -0.34 1.02 0 0 Z " fill="#1C4129" transform="translate(772,686)"/>
<path d="M0 0 C0.7425 0.00064453 1.485 0.00128906 2.25 0.00195312 C6.47675268 0.03555805 10.46332695 0.36177122 14.625 1.1875 C14.625 1.5175 14.625 1.8475 14.625 2.1875 C13.91472656 2.23648438 13.20445312 2.28546875 12.47265625 2.3359375 C11.09400391 2.44808594 11.09400391 2.44808594 9.6875 2.5625 C8.77097656 2.63210938 7.85445312 2.70171875 6.91015625 2.7734375 C6.15605469 2.91007813 5.40195312 3.04671875 4.625 3.1875 C4.295 3.8475 3.965 4.5075 3.625 5.1875 C4.615 5.5175 5.605 5.8475 6.625 6.1875 C2.995 5.8575 -0.635 5.5275 -4.375 5.1875 C-3.715 4.5275 -3.055 3.8675 -2.375 3.1875 C-5.675 2.8575 -8.975 2.5275 -12.375 2.1875 C-7.97790085 -0.01104957 -4.76269022 -0.07774151 0 0 Z " fill="#0A1C0E" transform="translate(571.375,608.8125)"/>
<path d="M0 0 C0.75732422 0.04833984 1.51464844 0.09667969 2.29492188 0.14648438 C3.08060547 0.20255859 3.86628906 0.25863281 4.67578125 0.31640625 C5.47306641 0.36861328 6.27035156 0.42082031 7.09179688 0.47460938 C9.05764647 0.60409647 11.0230179 0.74080666 12.98828125 0.87890625 C12.98828125 1.20890625 12.98828125 1.53890625 12.98828125 1.87890625 C11.92867188 2.07226562 10.8690625 2.265625 9.77734375 2.46484375 C8.38924572 2.72745689 7.00122901 2.99050011 5.61328125 3.25390625 C4.91460937 3.38023437 4.2159375 3.5065625 3.49609375 3.63671875 C-0.6843134 4.38033946 -0.6843134 4.38033946 -4.01171875 6.87890625 C-4.67171875 7.53890625 -5.33171875 8.19890625 -6.01171875 8.87890625 C-7.33171875 7.22890625 -8.65171875 5.57890625 -10.01171875 3.87890625 C-6.94721255 0.52254232 -4.49097845 -0.3039008 0 0 Z " fill="#1A3A25" transform="translate(374.01171875,610.12109375)"/>
<path d="M0 0 C0.99 0 1.98 0 3 0 C4.43410153 3.78819273 3.51009497 6.06521279 2.0625 9.75 C1.68222656 10.73484375 1.30195312 11.7196875 0.91015625 12.734375 C0.60980469 13.48203125 0.30945313 14.2296875 0 15 C-0.99 15 -1.98 15 -3 15 C-3.3152595 9.01006953 -2.68219822 5.36439644 0 0 Z " fill="#122D19" transform="translate(126,630)"/>
<path d="M0 0 C0.99 0.33 1.98 0.66 3 1 C2.34 1 1.68 1 1 1 C0.93941406 1.62648438 0.87882812 2.25296875 0.81640625 2.8984375 C0.69072266 4.12433594 0.69072266 4.12433594 0.5625 5.375 C0.48128906 6.18710937 0.40007812 6.99921875 0.31640625 7.8359375 C0 10 0 10 -1 12 C-0.34 12 0.32 12 1 12 C0.34 14.31 -0.32 16.62 -1 19 C-1.99 18.01 -2.98 17.02 -4 16 C-4.99 18.475 -4.99 18.475 -6 21 C-7.14680101 17.55959697 -6.87124738 16.99729616 -5.56640625 13.76953125 C-5.24736328 12.96708984 -4.92832031 12.16464844 -4.59960938 11.33789062 C-4.08624023 10.08782227 -4.08624023 10.08782227 -3.5625 8.8125 C-3.22412109 7.96751953 -2.88574219 7.12253906 -2.53710938 6.25195312 C-1.69974448 4.16443784 -0.85379803 2.08083591 0 0 Z " fill="#102414" transform="translate(446,612)"/>
<path d="M0 0 C2.10478604 0.11409682 4.20884577 0.24165361 6.3125 0.375 C7.48425781 0.44460938 8.65601563 0.51421875 9.86328125 0.5859375 C13 1 13 1 16 3 C16 3.66 16 4.32 16 5 C6.11429119 6.43697694 6.11429119 6.43697694 1.8125 4.75 C1.214375 4.1725 0.61625 3.595 0 3 C0 2.01 0 1.02 0 0 Z " fill="#203C28" transform="translate(556,610)"/>
<path d="M0 0 C0.66 0 1.32 0 2 0 C4.81763407 2.81763407 5.94608803 4.28566635 6.25 8.3125 C6.1675 9.199375 6.085 10.08625 6 11 C5.34 10.67 4.68 10.34 4 10 C3.01 10.99 2.02 11.98 1 13 C0 12 0 12 -0.09765625 9.27734375 C-0.08605469 8.17519531 -0.07445312 7.07304688 -0.0625 5.9375 C-0.05347656 4.83277344 -0.04445313 3.72804688 -0.03515625 2.58984375 C-0.02355469 1.73519531 -0.01195312 0.88054688 0 0 Z " fill="#193B24" transform="translate(353,668)"/>
<path d="M0 0 C1.8125 2.5 1.8125 2.5 3 5 C-1.75 8 -1.75 8 -4 8 C-4 6.35 -4 4.7 -4 3 C-6.97 3.66 -9.94 4.32 -13 5 C-9.23904292 1.23904292 -5.45509011 -1.00488502 0 0 Z " fill="#0E2414" transform="translate(558,611)"/>
<path d="M0 0 C0.33 0 0.66 0 1 0 C1 7.92 1 15.84 1 24 C-0.32 23.67 -1.64 23.34 -3 23 C-4.625 20.125 -4.625 20.125 -6 17 C-6.66 16.01 -7.32 15.02 -8 14 C-7.401875 14.33 -6.80375 14.66 -6.1875 15 C-3.94613529 16.20787988 -3.94613529 16.20787988 -1 16 C-0.67 10.72 -0.34 5.44 0 0 Z " fill="#0B180D" transform="translate(747,638)"/>
<path d="M0 0 C-0.33 0.99 -0.66 1.98 -1 3 C6.26 3.33 13.52 3.66 21 4 C21 3.34 21 2.68 21 2 C21.66 2.33 22.32 2.66 23 3 C22.67 3.66 22.34 4.32 22 5 C11.77 5 1.54 5 -9 5 C-4 0 -4 0 0 0 Z " fill="#1F412B" transform="translate(154,684)"/>
<path d="M0 0 C0.66 0.33 1.32 0.66 2 1 C3.70488761 1.0963008 5.41348977 1.13075035 7.12109375 1.1328125 C8.64766602 1.13474609 8.64766602 1.13474609 10.20507812 1.13671875 C11.80512695 1.13091797 11.80512695 1.13091797 13.4375 1.125 C14.50033203 1.12886719 15.56316406 1.13273438 16.65820312 1.13671875 C17.67720703 1.13542969 18.69621094 1.13414062 19.74609375 1.1328125 C20.68122803 1.13168457 21.6163623 1.13055664 22.57983398 1.12939453 C25.14308622 1.09959771 25.14308622 1.09959771 28 0 C28.66 1.98 29.32 3.96 30 6 C29.4541626 5.67475342 28.9083252 5.34950684 28.34594727 5.0144043 C25.54756 3.80436172 23.50785428 3.75658011 20.46484375 3.76953125 C18.88026367 3.77243164 18.88026367 3.77243164 17.26367188 3.77539062 C16.16603516 3.78763672 15.06839844 3.79988281 13.9375 3.8125 C12.28524414 3.8134668 12.28524414 3.8134668 10.59960938 3.81445312 C4.7044384 3.76398724 4.7044384 3.76398724 -1 5 C-0.67 3.35 -0.34 1.7 0 0 Z " fill="#EEEEEC" transform="translate(118,664)"/>
<path d="M0 0 C0.33 0 0.66 0 1 0 C1 3.96 1 7.92 1 12 C-0.32 12 -1.64 12 -3 12 C-4.23076923 5.6 -4.23076923 5.6 -3.0625 2.5625 C-2.711875 2.046875 -2.36125 1.53125 -2 1 C-2 1.66 -2 2.32 -2 3 C-1.34 3 -0.68 3 0 3 C0 2.01 0 1.02 0 0 Z " fill="#0F2815" transform="translate(755,619)"/>
<path d="M0 0 C2 2 2 2 2.265625 5.15234375 C2.26046875 6.40144531 2.2553125 7.65054688 2.25 8.9375 C2.25515625 10.18402344 2.2603125 11.43054688 2.265625 12.71484375 C2 16 2 16 0 19 C-0.88176404 15.21401311 -1.13465003 11.6966357 -1.125 7.8125 C-1.12757813 6.76707031 -1.13015625 5.72164062 -1.1328125 4.64453125 C-1 2 -1 2 0 0 Z " fill="#203525" transform="translate(526,642)"/>
<path d="M0 0 C0.54269531 0.40992188 1.08539063 0.81984375 1.64453125 1.2421875 C2.35996094 1.78101563 3.07539063 2.31984375 3.8125 2.875 C4.52019531 3.40867187 5.22789062 3.94234375 5.95703125 4.4921875 C7.60456297 5.70814781 9.29624211 6.86416141 11 8 C11 9.32 11 10.64 11 12 C6.71 12 2.42 12 -2 12 C-2 11.67 -2 11.34 -2 11 C0.64 11 3.28 11 6 11 C6.33 9.68 6.66 8.36 7 7 C6.401875 6.731875 5.80375 6.46375 5.1875 6.1875 C3.00152146 5.00082594 1.58667406 3.90400887 0 2 C0 1.34 0 0.68 0 0 Z " fill="#09190C" transform="translate(291,679)"/>
<path d="M0 0 C0.66 0.99 1.32 1.98 2 3 C0.67332027 6.91021394 -0.5953005 10.48348298 -4 13 C-4.66 13 -5.32 13 -6 13 C-6.6875 11.1875 -6.6875 11.1875 -7 9 C-5.625 7.4375 -5.625 7.4375 -4 6 C-3.67 5.01 -3.34 4.02 -3 3 C-2.34 3 -1.68 3 -1 3 C-0.67 2.01 -0.34 1.02 0 0 Z " fill="#163820" transform="translate(435,648)"/>
<path d="M0 0 C2.475 0.495 2.475 0.495 5 1 C5 1.99 5 2.98 5 4 C-5.56 4 -16.12 4 -27 4 C-27 3.67 -27 3.34 -27 3 C-17.43 2.67 -7.86 2.34 2 2 C1.34 1.34 0.68 0.68 0 0 Z " fill="#020F03" transform="translate(487,686)"/>
<path d="M0 0 C1.07677002 0.24665405 1.07677002 0.24665405 2.17529297 0.49829102 C4.94043009 0.98941952 7.39277172 1.08479609 10.1953125 1.02734375 C11.15824219 1.01509766 12.12117187 1.00285156 13.11328125 0.99023438 C15.12897575 0.95494011 17.14460717 0.91584811 19.16015625 0.87304688 C20.12050781 0.86208984 21.08085937 0.85113281 22.0703125 0.83984375 C22.94445801 0.82300537 23.81860352 0.80616699 24.71923828 0.78881836 C27 1 27 1 30 3 C19.77 3 9.54 3 -1 3 C-0.67 2.01 -0.34 1.02 0 0 Z " fill="#1B3E27" transform="translate(228,686)"/>
<path d="M0 0 C0.99 0 1.98 0 3 0 C4.0161692 4.62921525 3.83796731 8.34462607 3 13 C1.35 12.67 -0.3 12.34 -2 12 C-1.855625 11.319375 -1.71125 10.63875 -1.5625 9.9375 C-0.93054091 6.63726918 -0.45686059 3.32855574 0 0 Z " fill="#183822" transform="translate(119,643)"/>
<path d="M0 0 C0.66 0.66 1.32 1.32 2 2 C4.66242821 2.46290221 4.66242821 2.46290221 7.625 2.625 C9.12933594 2.73714844 9.12933594 2.73714844 10.6640625 2.8515625 C11.43492187 2.90054688 12.20578125 2.94953125 13 3 C12.01 4.485 12.01 4.485 11 6 C8.390379 6.38411275 5.9941926 6.60293197 3.375 6.6875 C2.31539062 6.73874023 2.31539062 6.73874023 1.234375 6.79101562 C-0.50985688 6.87351308 -2.25490395 6.93843335 -4 7 C-4 6.01 -4 5.02 -4 4 C-3.01 3.34 -2.02 2.68 -1 2 C-0.67 1.34 -0.34 0.68 0 0 Z " fill="#1F3E28" transform="translate(561,685)"/>
<path d="M0 0 C0.33 0.66 0.66 1.32 1 2 C1.66 2 2.32 2 3 2 C3.08114106 3.77007714 3.13925505 5.54122098 3.1875 7.3125 C3.23970703 8.79169922 3.23970703 8.79169922 3.29296875 10.30078125 C3 13 3 13 0 16 C0 10.72 0 5.44 0 0 Z " fill="#253A2B" transform="translate(274,625)"/>
<path d="M0 0 C0.66 0.66 1.32 1.32 2 2 C4.86279733 2.0930991 7.64308869 2.09382303 10.5 2 C13.35691131 1.90617697 16.13720267 1.9069009 19 2 C19.66 2.66 20.32 3.32 21 4 C13.41 4 5.82 4 -2 4 C-2.33 3.01 -2.66 2.02 -3 1 C-2.01 0.67 -1.02 0.34 0 0 Z " fill="#20422C" transform="translate(414,685)"/>
<path d="M0 0 C4.62 0.66 9.24 1.32 14 2 C14 2.33 14 2.66 14 3 C13.08476562 3.12117187 12.16953125 3.24234375 11.2265625 3.3671875 C9.44378906 3.61855469 9.44378906 3.61855469 7.625 3.875 C5.84996094 4.11863281 5.84996094 4.11863281 4.0390625 4.3671875 C0.90433341 4.7302585 0.90433341 4.7302585 -1 7 C-1.99 6.67 -2.98 6.34 -4 6 C-4 5.34 -4 4.68 -4 4 C-2.68 3.67 -1.36 3.34 0 3 C0 2.01 0 1.02 0 0 Z " fill="#294030" transform="translate(366,684)"/>
<path d="M0 0 C2.24959782 4.49919565 2.07922275 6.34439425 1.625 11.25 C1.51414062 12.51328125 1.40328125 13.7765625 1.2890625 15.078125 C1.19367187 16.04234375 1.09828125 17.0065625 1 18 C0.01 18.33 -0.98 18.66 -2 19 C-1.34 12.73 -0.68 6.46 0 0 Z " fill="#DCE0DC" transform="translate(760,670)"/>
<path d="M0 0 C0.99 0 1.98 0 3 0 C4.52448631 2.9826906 5.93940067 5.818202 7 9 C9.50447516 10.21869929 9.50447516 10.21869929 12 11 C12 11.99 12 12.98 12 14 C6.65127998 10.53906352 3.37572196 7.42161406 0 2 C0 1.34 0 0.68 0 0 Z " fill="#E8EBE9" transform="translate(547,671)"/>
<path d="M0 0 C1.32 0.33 2.64 0.66 4 1 C3.67 8.26 3.34 15.52 3 23 C2.67 23 2.34 23 2 23 C1.93941406 21.75863281 1.87882813 20.51726563 1.81640625 19.23828125 C1.73196377 17.59634423 1.64731764 15.95441768 1.5625 14.3125 C1.52318359 13.49587891 1.48386719 12.67925781 1.44335938 11.83789062 C1.23101997 7.80344189 0.95552078 3.94252691 0 0 Z " fill="#22412B" transform="translate(744,637)"/>
<path d="M0 0 C0.33 0 0.66 0 1 0 C1.33 1.98 1.66 3.96 2 6 C2.33 6 2.66 6 3 6 C2.67 9.3 2.34 12.6 2 16 C1.34 16 0.68 16 0 16 C-1.06795656 10.42289352 -0.82622671 5.60563042 0 0 Z " fill="#183821" transform="translate(827,614)"/>
<path d="M0 0 C2.35953094 2.35953094 2.49141413 3.77895617 3 7 C-0.75 10 -0.75 10 -3 10 C-3.33 8.68 -3.66 7.36 -4 6 C-3.34 5.67 -2.68 5.34 -2 5 C-1.27840576 3.35636866 -0.60648579 1.68949614 0 0 Z " fill="#193A24" transform="translate(442,626)"/>
<path d="M0 0 C-0.33 1.32 -0.66 2.64 -1 4 C-2.918125 3.8453125 -2.918125 3.8453125 -4.875 3.6875 C-5.95394531 3.60048828 -5.95394531 3.60048828 -7.0546875 3.51171875 C-9 3 -9 3 -11 0 C-3.375 -1.125 -3.375 -1.125 0 0 Z " fill="#1C3D26" transform="translate(384,688)"/>
<path d="M0 0 C3.96 0 7.92 0 12 0 C11.01 0.495 11.01 0.495 10 1 C9.34786708 3.02463255 9.34786708 3.02463255 9 5 C8.67 4.34 8.34 3.68 8 3 C5.03 3 2.06 3 -1 3 C-0.67 2.01 -0.34 1.02 0 0 Z " fill="#37553F" transform="translate(252,654)"/>
<path d="M0 0 C0.99 0.33 1.98 0.66 3 1 C3.36923077 6.53846154 3.36923077 6.53846154 1.5 8.875 C0.7575 9.431875 0.7575 9.431875 0 10 C-1.32 9.34 -2.64 8.68 -4 8 C-2.68 7.67 -1.36 7.34 0 7 C0 4.69 0 2.38 0 0 Z " fill="#ECEDEA" transform="translate(776,676)"/>
<path d="M0 0 C0.99 0 1.98 0 3 0 C4.35384615 6.4 4.35384615 6.4 2.5625 9.4375 C2.046875 9.953125 1.53125 10.46875 1 11 C-0.28317892 7.15046324 -0.06643637 4.05261865 0 0 Z " fill="#1B3A24" transform="translate(515,475)"/>
<path d="M0 0 C-1.65 0.33 -3.3 0.66 -5 1 C-5 1.66 -5 2.32 -5 3 C-7.97 3 -10.94 3 -14 3 C-13.67 2.01 -13.34 1.02 -13 0 C-11.39679026 -0.19551338 -9.79237014 -0.38111983 -8.1875 -0.5625 C-7.29417969 -0.66691406 -6.40085938 -0.77132812 -5.48046875 -0.87890625 C-3 -1 -3 -1 0 0 Z " fill="#28402E" transform="translate(207,789)"/>
<path d="M0 0 C2.60334924 2.71182212 2.99456691 3.89133813 3.1875 7.75 C3.0946875 9.35875 3.0946875 9.35875 3 11 C2.01 11.495 2.01 11.495 1 12 C0.03929566 9.11788698 -0.10581883 7.30149956 -0.0625 4.3125 C-0.05347656 3.50425781 -0.04445313 2.69601562 -0.03515625 1.86328125 C-0.02355469 1.24839844 -0.01195312 0.63351562 0 0 Z " fill="#D6DAD6" transform="translate(813,765)"/>
<path d="M0 0 C3.96 0 7.92 0 12 0 C11.67 0.99 11.34 1.98 11 3 C9.54257537 3.08096803 8.08387193 3.13917774 6.625 3.1875 C5.81289063 3.22230469 5.00078125 3.25710938 4.1640625 3.29296875 C3.44992187 3.19628906 2.73578125 3.09960938 2 3 C1.34 2.01 0.68 1.02 0 0 Z " fill="#21402C" transform="translate(423,797)"/>
<path d="M0 0 C1.44856764 4.34570291 0.42444707 7.72665878 -1 12 C-1.66 12.66 -2.32 13.32 -3 14 C-4.37095624 10.30962722 -3.60010967 8.29116165 -2.0625 4.75 C-1.68222656 3.85796875 -1.30195313 2.9659375 -0.91015625 2.046875 C-0.60980469 1.37140625 -0.30945313 0.6959375 0 0 Z " fill="#ECEEEB" transform="translate(444,634)"/>
<path d="M0 0 C1.32 0.66 2.64 1.32 4 2 C2.71034824 3.37562854 1.37310707 4.70766393 0 6 C-0.66 6 -1.32 6 -2 6 C-2.33 5.01 -2.66 4.02 -3 3 C-2.01 2.01 -1.02 1.02 0 0 Z " fill="#EEEFED" transform="translate(587,356)"/>
<path d="M0 0 C0.66 0.33 1.32 0.66 2 1 C-0.31 4.63 -2.62 8.26 -5 12 C-5.66 11.34 -6.32 10.68 -7 10 C-5.6062718 5.56541027 -3.39417765 3.12621626 0 0 Z " fill="#E8ECE9" transform="translate(525,347)"/>
<path d="M0 0 C1.21386936 3.64160808 0.6674695 4.33165469 -0.9375 7.6875 C-1.31777344 8.49574219 -1.69804687 9.30398438 -2.08984375 10.13671875 C-2.39019531 10.75160156 -2.69054687 11.36648438 -3 12 C-3.66 11.67 -4.32 11.34 -5 11 C-5 9.35 -5 7.7 -5 6 C-4.01 6 -3.02 6 -2 6 C-1.34 4.02 -0.68 2.04 0 0 Z " fill="#0E1F12" transform="translate(462,320)"/>
<path d="M0 0 C0.66 0 1.32 0 2 0 C2.6875 2.3125 2.6875 2.3125 3 5 C1.18682851 7.53844009 0.01532925 7.99489025 -3 9 C-2.01 6.03 -1.02 3.06 0 0 Z " fill="#173821" transform="translate(831,670)"/>
<path d="M0 0 C0.68707555 2.49064888 1 4.37886292 1 7 C0.34 7 -0.32 7 -1 7 C-0.67 8.65 -0.34 10.3 0 12 C-0.99 12 -1.98 12 -3 12 C-2.68950274 10.56206608 -2.3765224 9.1246682 -2.0625 7.6875 C-1.88847656 6.88699219 -1.71445312 6.08648437 -1.53515625 5.26171875 C-1 3 -1 3 0 0 Z " fill="#E9EDEA" transform="translate(405,459)"/>
<path d="M0 0 C2.49388574 4.98777148 1.88836125 6.66983248 1 12 C0.01 12 -0.98 12 -2 12 C-1.34 8.04 -0.68 4.08 0 0 Z " fill="#EDEFED" transform="translate(656,336)"/>
<path d="M0 0 C2.22825644 2.22825644 2.69239369 3.65761628 3.625 6.625 C3.88539063 7.44226563 4.14578125 8.25953125 4.4140625 9.1015625 C4.60742188 9.72804688 4.80078125 10.35453125 5 11 C4.34 11 3.68 11 3 11 C3 10.34 3 9.68 3 9 C2.34 9 1.68 9 1 9 C1 7.35 1 5.7 1 4 C0.34 4 -0.32 4 -1 4 C-0.67 2.68 -0.34 1.36 0 0 Z " fill="#EAECEA" transform="translate(508,314)"/>
<path d="M0 0 C0.99 1.32 1.98 2.64 3 4 C2.34 4.66 1.68 5.32 1 6 C0.01 6 -0.98 6 -2 6 C-2.33 6.99 -2.66 7.98 -3 9 C-3.33 8.34 -3.66 7.68 -4 7 C-3.22265625 5.2734375 -3.22265625 5.2734375 -2.0625 3.375 C-1.381875 2.26125 -0.70125 1.1475 0 0 Z " fill="#EBEEEC" transform="translate(488,265)"/>
<path d="M0 0 C3.5218253 1.95656961 6.34442785 3.95100975 9 7 C9 7.66 9 8.32 9 9 C7 9 7 9 4.5625 6.6875 C3.716875 5.800625 2.87125 4.91375 2 4 C1.401875 3.401875 0.80375 2.80375 0.1875 2.1875 C-0.204375 1.795625 -0.59625 1.40375 -1 1 C-0.67 0.67 -0.34 0.34 0 0 Z " fill="#EDEFED" transform="translate(442,740)"/>
<path d="M0 0 C0 1.98 0 3.96 0 6 C-1.32 6.33 -2.64 6.66 -4 7 C-4 6.34 -4 5.68 -4 5 C-4.66 4.67 -5.32 4.34 -6 4 C-5.01 4 -4.02 4 -3 4 C-3 3.01 -3 2.02 -3 1 C-1 0 -1 0 0 0 Z " fill="#EDEFEC" transform="translate(466,679)"/>
<path d="M0 0 C1.33332095 2.6666419 0.67102033 4.16680303 0 7 C-0.66 7 -1.32 7 -2 7 C-2.66 8.98 -3.32 10.96 -4 13 C-5 10 -5 10 -4.00390625 7.51953125 C-3.52824219 6.62621094 -3.05257813 5.73289062 -2.5625 4.8125 C-2.08941406 3.91144531 -1.61632812 3.01039063 -1.12890625 2.08203125 C-0.75636719 1.39496094 -0.38382812 0.70789063 0 0 Z " fill="#0B1A0E" transform="translate(457,279)"/>
<path d="M0 0 C0.99 0.33 1.98 0.66 3 1 C3.22174933 2.45635371 3.42698698 3.91522956 3.625 5.375 C3.74101563 6.18710937 3.85703125 6.99921875 3.9765625 7.8359375 C3.98429688 8.55007813 3.99203125 9.26421875 4 10 C3.34 10.66 2.68 11.32 2 12 C1.34 8.04 0.68 4.08 0 0 Z " fill="#EBEEEB" transform="translate(653,260)"/>
<path d="M0 0 C6.4 -0.49230769 6.4 -0.49230769 9.4375 2 C10.2109375 2.99 10.2109375 2.99 11 4 C9 5 9 5 6.0625 4.25 C3.25169164 3.10273128 1.8842594 2.30298372 0 0 Z " fill="#213928" transform="translate(736,614)"/>
<path d="M0 0 C0.33 0.99 0.66 1.98 1 3 C-0.11375 3.474375 -1.2275 3.94875 -2.375 4.4375 C-4.26710994 5.25306463 -6.15712709 6.07856355 -8 7 C-7.375 4.625 -7.375 4.625 -6 2 C-2.875 0.6875 -2.875 0.6875 0 0 Z " fill="#0D2112" transform="translate(926,611)"/>
<path d="M0 0 C0.66 0.99 1.32 1.98 2 3 C-0.97 5.475 -0.97 5.475 -4 8 C-4.66 7.67 -5.32 7.34 -6 7 C-4.02 4.69 -2.04 2.38 0 0 Z " fill="#0E2314" transform="translate(369,480)"/>
<path d="M0 0 C0.33 0 0.66 0 1 0 C1.33 2.64 1.66 5.28 2 8 C0.02 8 -1.96 8 -4 8 C-4 7.01 -4 6.02 -4 5 C-2.02 5.495 -2.02 5.495 0 6 C0 4.02 0 2.04 0 0 Z " fill="#0F2110" transform="translate(916,684)"/>
<path d="M0 0 C2.6855594 2.6855594 3.06049974 5.37621328 4 9 C3.01 9.495 3.01 9.495 2 10 C2 9.01 2 8.02 2 7 C1.34 7 0.68 7 0 7 C-1.125 2.25 -1.125 2.25 0 0 Z " fill="#EDF1EE" transform="translate(446,628)"/>
<path d="M0 0 C0.99 0 1.98 0 3 0 C3.33 1.32 3.66 2.64 4 4 C2.68 4.99 1.36 5.98 0 7 C-1.125 2.25 -1.125 2.25 0 0 Z " fill="#193C24" transform="translate(126,630)"/>
<path d="M0 0 C2.625 0.375 2.625 0.375 5 1 C5.33 3.31 5.66 5.62 6 8 C4 5 4 5 3 3 C0.47266765 2.34444881 0.47266765 2.34444881 -2 2 C-1.34 1.34 -0.68 0.68 0 0 Z " fill="#0B190D" transform="translate(138,610)"/>
<path d="M0 0 C0.33 0 0.66 0 1 0 C1.28571429 8.57142857 1.28571429 8.57142857 -1 12 C-1.66 10.68 -2.32 9.36 -3 8 C-2.34 7.67 -1.68 7.34 -1 7 C-0.59270772 4.67843403 -0.25561323 2.3431213 0 0 Z " fill="#2F4B36" transform="translate(597,621)"/>
<path d="M0 0 C2.0625 1.625 2.0625 1.625 4 4 C3.75 7.25 3.75 7.25 3 10 C0.70366176 6.55549263 0.45983515 4.06187717 0 0 Z " fill="#132015" transform="translate(512,439)"/>
<path d="M0 0 C0.66 0.66 1.32 1.32 2 2 C1.34 2 0.68 2 0 2 C0.04125 3.11375 0.0825 4.2275 0.125 5.375 C0 9 0 9 -2 11 C-2.95465783 8.83032311 -3.14401212 7.43671207 -2.3984375 5.17578125 C-1.64129615 3.4315257 -0.82390802 1.71372869 0 0 Z " fill="#EEEFEE" transform="translate(653,352)"/>
<path d="M0 0 C1.2065625 0.0309375 1.2065625 0.0309375 2.4375 0.0625 C2.7675 2.0425 3.0975 4.0225 3.4375 6.0625 C2.839375 5.60875 2.24125 5.155 1.625 4.6875 C-0.06840652 3.42954087 -1.80727086 2.23265276 -3.5625 1.0625 C-2.5625 0.0625 -2.5625 0.0625 0 0 Z " fill="#132817" transform="translate(619.5625,612.9375)"/>
</svg>
